<?xml version="1.0" encoding="UTF-8" standalone="no"?>
<!DOCTYPE svg PUBLIC "-//W3C//DTD SVG 1.1//EN"
 "http://www.w3.org/Graphics/SVG/1.1/DTD/svg11.dtd">
<!-- Generated by graphviz version 2.50.0 (20220203.2022)
 -->
<!-- Title: MotorThread Pages: 1 -->
<svg width="242pt" height="219pt"
 viewBox="0.00 0.00 241.87 219.00" xmlns="http://www.w3.org/2000/svg" xmlns:xlink="http://www.w3.org/1999/xlink">
<g id="graph0" class="graph" transform="scale(1 1) rotate(0) translate(4 215)">
<title>MotorThread</title>
<!-- Node1 -->
<g id="node1" class="node">
<title>Node1</title>
<g id="a_node1"><a xlink:title=" ">
<polygon fill="#bfbfbf" stroke="black" points="17.37,-0.5 17.37,-19.5 88.37,-19.5 88.37,-0.5 17.37,-0.5"/>
<text text-anchor="middle" x="52.87" y="-7.5" font-family="Helvetica,sans-Serif" font-size="10.00">MotorThread</text>
</a>
</g>
</g>
<!-- Node2 -->
<g id="node2" class="node">
<title>Node2</title>
<g id="a_node2"><a xlink:title=" ">
<polygon fill="none" stroke="black" points="14.87,-191.5 14.87,-210.5 68.87,-210.5 68.87,-191.5 14.87,-191.5"/>
<text text-anchor="middle" x="41.87" y="-198.5" font-family="Helvetica,sans-Serif" font-size="10.00">QThread</text>
</a>
</g>
</g>
<!-- Node2&#45;&gt;Node1 -->
<g id="edge1" class="edge">
<title>Node2&#45;&gt;Node1</title>
<path fill="none" stroke="midnightblue" d="M23.07,-184.24C14.89,-176.15 6.2,-165.57 1.87,-154 -1.24,-145.67 0.61,-142.8 1.87,-134 8.16,-90 8.77,-77.12 29.87,-38 33.5,-31.28 39.01,-24.74 43.72,-19.77"/>
<polygon fill="midnightblue" stroke="midnightblue" points="20.88,-186.97 30.6,-191.18 25.62,-181.83 20.88,-186.97"/>
</g>
<!-- Node4 -->
<g id="node4" class="node">
<title>Node4</title>
<g id="a_node4"><a xlink:href="classFootPedal.html" target="_top" xlink:title=" ">
<polygon fill="none" stroke="black" points="11.37,-134.5 11.37,-153.5 72.37,-153.5 72.37,-134.5 11.37,-134.5"/>
<text text-anchor="middle" x="41.87" y="-141.5" font-family="Helvetica,sans-Serif" font-size="10.00">FootPedal</text>
</a>
</g>
</g>
<!-- Node2&#45;&gt;Node4 -->
<g id="edge4" class="edge">
<title>Node2&#45;&gt;Node4</title>
<path fill="none" stroke="midnightblue" d="M41.87,-181.12C41.87,-171.82 41.87,-161.06 41.87,-153.71"/>
<polygon fill="midnightblue" stroke="midnightblue" points="38.37,-181.41 41.87,-191.41 45.37,-181.41 38.37,-181.41"/>
</g>
<!-- Node5 -->
<g id="node5" class="node">
<title>Node5</title>
<g id="a_node5"><a xlink:href="classEposThread.html" target="_top" xlink:title=" ">
<polygon fill="none" stroke="black" points="97.87,-67.5 97.87,-86.5 165.87,-86.5 165.87,-67.5 97.87,-67.5"/>
<text text-anchor="middle" x="131.87" y="-74.5" font-family="Helvetica,sans-Serif" font-size="10.00">EposThread</text>
</a>
</g>
</g>
<!-- Node2&#45;&gt;Node5 -->
<g id="edge6" class="edge">
<title>Node2&#45;&gt;Node5</title>
<path fill="none" stroke="midnightblue" d="M56.27,-183.92C63.84,-175.25 73.12,-164.25 80.87,-154 98.69,-130.42 117.54,-100.98 126.51,-86.65"/>
<polygon fill="midnightblue" stroke="midnightblue" points="53.64,-181.61 49.65,-191.42 58.89,-186.24 53.64,-181.61"/>
</g>
<!-- Node3 -->
<g id="node3" class="node">
<title>Node3</title>
<g id="a_node3"><a xlink:href="classMaxonMotor.html" target="_top" xlink:title=" ">
<polygon fill="none" stroke="black" points="155.87,-134.5 155.87,-153.5 225.87,-153.5 225.87,-134.5 155.87,-134.5"/>
<text text-anchor="middle" x="190.87" y="-141.5" font-family="Helvetica,sans-Serif" font-size="10.00">MaxonMotor</text>
</a>
</g>
</g>
<!-- Node3&#45;&gt;Node1 -->
<g id="edge2" class="edge">
<title>Node3&#45;&gt;Node1</title>
<path fill="none" stroke="#9a32cd" stroke-dasharray="5,2" d="M193.2,-124.08C194.96,-100.19 193.84,-59.6 169.87,-38 147.8,-18.11 114.05,-12 88.46,-10.49"/>
<polygon fill="#9a32cd" stroke="#9a32cd" points="189.69,-124.02 192.19,-134.31 196.65,-124.7 189.69,-124.02"/>
<text text-anchor="middle" x="213.37" y="-74.5" font-family="Helvetica,sans-Serif" font-size="10.00"> m_Motor</text>
</g>
<!-- Node3&#45;&gt;Node5 -->
<g id="edge7" class="edge">
<title>Node3&#45;&gt;Node5</title>
<path fill="none" stroke="#9a32cd" stroke-dasharray="5,2" d="M162.13,-129.09C156.54,-125.42 151.11,-121.05 146.87,-116 139.67,-107.42 135.64,-94.95 133.62,-86.67"/>
<polygon fill="#9a32cd" stroke="#9a32cd" points="160.5,-132.2 170.89,-134.28 164.07,-126.18 160.5,-132.2"/>
<text text-anchor="middle" x="169.87" y="-108" font-family="Helvetica,sans-Serif" font-size="10.00"> m_pMotor</text>
</g>
<!-- Node4&#45;&gt;Node1 -->
<g id="edge3" class="edge">
<title>Node4&#45;&gt;Node1</title>
<path fill="none" stroke="#9a32cd" stroke-dasharray="5,2" d="M34.45,-124.67C29.17,-109.24 23.69,-86.62 27.87,-67 31.64,-49.3 41.43,-30.41 47.58,-19.72"/>
<polygon fill="#9a32cd" stroke="#9a32cd" points="31.18,-125.93 37.95,-134.08 37.74,-123.48 31.18,-125.93"/>
<text text-anchor="middle" x="58.37" y="-74.5" font-family="Helvetica,sans-Serif" font-size="10.00"> m_FootPedal</text>
</g>
<!-- Node4&#45;&gt;Node5 -->
<g id="edge8" class="edge">
<title>Node4&#45;&gt;Node5</title>
<path fill="none" stroke="#9a32cd" stroke-dasharray="5,2" d="M43.64,-124.38C45.15,-117.55 47.89,-110.22 52.87,-105 59.32,-98.23 79.33,-91.43 97.6,-86.35"/>
<polygon fill="#9a32cd" stroke="#9a32cd" points="40.17,-123.92 42.15,-134.33 47.1,-124.96 40.17,-123.92"/>
<text text-anchor="middle" x="75.87" y="-108" font-family="Helvetica,sans-Serif" font-size="10.00"> m_pPedal</text>
</g>
<!-- Node5&#45;&gt;Node1 -->
<g id="edge5" class="edge">
<title>Node5&#45;&gt;Node1</title>
<path fill="none" stroke="#9a32cd" stroke-dasharray="5,2" d="M113.29,-60.71C97.73,-47.91 76.07,-30.09 63.36,-19.63"/>
<polygon fill="#9a32cd" stroke="#9a32cd" points="111.27,-63.58 121.22,-67.23 115.72,-58.18 111.27,-63.58"/>
<text text-anchor="middle" x="131.87" y="-41" font-family="Helvetica,sans-Serif" font-size="10.00"> m_EposThread</text>
</g>
</g>
</svg>
