<?xml version="1.0" encoding="UTF-8" standalone="no"?>
<!DOCTYPE svg PUBLIC "-//W3C//DTD SVG 1.1//EN"
 "http://www.w3.org/Graphics/SVG/1.1/DTD/svg11.dtd">
<!-- Generated by graphviz version 2.50.0 (20220203.2022)
 -->
<!-- Title: MainWindow Pages: 1 -->
<svg width="465pt" height="286pt"
 viewBox="0.00 0.00 464.86 286.00" xmlns="http://www.w3.org/2000/svg" xmlns:xlink="http://www.w3.org/1999/xlink">
<g id="graph0" class="graph" transform="scale(1 1) rotate(0) translate(4 282)">
<title>MainWindow</title>
<!-- Node1 -->
<g id="node1" class="node">
<title>Node1</title>
<g id="a_node1"><a xlink:title=" ">
<polygon fill="#bfbfbf" stroke="black" points="85.86,-0.5 85.86,-19.5 157.86,-19.5 157.86,-0.5 85.86,-0.5"/>
<text text-anchor="middle" x="121.86" y="-7.5" font-family="Helvetica,sans-Serif" font-size="10.00">MainWindow</text>
</a>
</g>
</g>
<!-- Node2 -->
<g id="node2" class="node">
<title>Node2</title>
<g id="a_node2"><a xlink:title=" ">
<polygon fill="none" stroke="black" points="22.86,-134.5 22.86,-153.5 102.86,-153.5 102.86,-134.5 22.86,-134.5"/>
<text text-anchor="middle" x="62.86" y="-141.5" font-family="Helvetica,sans-Serif" font-size="10.00">QMainWindow</text>
</a>
</g>
</g>
<!-- Node2&#45;&gt;Node1 -->
<g id="edge1" class="edge">
<title>Node2&#45;&gt;Node1</title>
<path fill="none" stroke="midnightblue" d="M38.79,-128.88C16.97,-114.18 -9.84,-90.11 3.86,-67 20.98,-38.13 57.74,-23.92 85.72,-17.08"/>
<polygon fill="midnightblue" stroke="midnightblue" points="37.1,-131.96 47.4,-134.4 40.87,-126.06 37.1,-131.96"/>
</g>
<!-- Node3 -->
<g id="node3" class="node">
<title>Node3</title>
<g id="a_node3"><a xlink:href="classEmergencyWindow.html" target="_top" xlink:title=" ">
<polygon fill="none" stroke="black" points="13.36,-67.5 13.36,-86.5 112.36,-86.5 112.36,-67.5 13.36,-67.5"/>
<text text-anchor="middle" x="62.86" y="-74.5" font-family="Helvetica,sans-Serif" font-size="10.00">EmergencyWindow</text>
</a>
</g>
</g>
<!-- Node2&#45;&gt;Node3 -->
<g id="edge3" class="edge">
<title>Node2&#45;&gt;Node3</title>
<path fill="none" stroke="midnightblue" d="M62.86,-124.04C62.86,-111.67 62.86,-96.12 62.86,-86.63"/>
<polygon fill="midnightblue" stroke="midnightblue" points="59.36,-124.23 62.86,-134.23 66.36,-124.23 59.36,-124.23"/>
</g>
<!-- Node9 -->
<g id="node9" class="node">
<title>Node9</title>
<g id="a_node9"><a xlink:href="classInitializationWindow.html" target="_top" xlink:title=" ">
<polygon fill="none" stroke="black" points="130.86,-67.5 130.86,-86.5 232.86,-86.5 232.86,-67.5 130.86,-67.5"/>
<text text-anchor="middle" x="181.86" y="-74.5" font-family="Helvetica,sans-Serif" font-size="10.00">InitializationWindow</text>
</a>
</g>
</g>
<!-- Node2&#45;&gt;Node9 -->
<g id="edge14" class="edge">
<title>Node2&#45;&gt;Node9</title>
<path fill="none" stroke="midnightblue" d="M87.97,-129.29C111.55,-116.4 146.12,-97.52 166.07,-86.63"/>
<polygon fill="midnightblue" stroke="midnightblue" points="86.01,-126.37 78.91,-134.23 89.37,-132.51 86.01,-126.37"/>
</g>
<!-- Node3&#45;&gt;Node1 -->
<g id="edge2" class="edge">
<title>Node3&#45;&gt;Node1</title>
<path fill="none" stroke="#9a32cd" stroke-dasharray="5,2" d="M60.09,-57.22C60.05,-50.66 61.14,-43.55 64.86,-38 70.53,-29.54 79.61,-23.66 88.86,-19.61"/>
<polygon fill="#9a32cd" stroke="#9a32cd" points="56.62,-57.71 60.96,-67.37 63.59,-57.11 56.62,-57.71"/>
<text text-anchor="middle" x="111.86" y="-41" font-family="Helvetica,sans-Serif" font-size="10.00"> emergency_window_</text>
</g>
<!-- Node4 -->
<g id="node4" class="node">
<title>Node4</title>
<g id="a_node4"><a xlink:href="classMotorThread.html" target="_top" xlink:title=" ">
<polygon fill="none" stroke="black" points="251.36,-67.5 251.36,-86.5 322.36,-86.5 322.36,-67.5 251.36,-67.5"/>
<text text-anchor="middle" x="286.86" y="-74.5" font-family="Helvetica,sans-Serif" font-size="10.00">MotorThread</text>
</a>
</g>
</g>
<!-- Node4&#45;&gt;Node1 -->
<g id="edge4" class="edge">
<title>Node4&#45;&gt;Node1</title>
<path fill="none" stroke="#9a32cd" stroke-dasharray="5,2" d="M268.42,-61.03C257.94,-53.18 244.28,-43.98 230.86,-38 207.72,-27.68 179.97,-20.88 158.26,-16.68"/>
<polygon fill="#9a32cd" stroke="#9a32cd" points="266.34,-63.85 276.39,-67.21 270.63,-58.32 266.34,-63.85"/>
<text text-anchor="middle" x="283.36" y="-41" font-family="Helvetica,sans-Serif" font-size="10.00"> motor_thread_</text>
</g>
<!-- Node5 -->
<g id="node5" class="node">
<title>Node5</title>
<g id="a_node5"><a xlink:title=" ">
<polygon fill="none" stroke="black" points="236.86,-258.5 236.86,-277.5 290.86,-277.5 290.86,-258.5 236.86,-258.5"/>
<text text-anchor="middle" x="263.86" y="-265.5" font-family="Helvetica,sans-Serif" font-size="10.00">QThread</text>
</a>
</g>
</g>
<!-- Node5&#45;&gt;Node4 -->
<g id="edge5" class="edge">
<title>Node5&#45;&gt;Node4</title>
<path fill="none" stroke="midnightblue" d="M245.06,-251.24C236.88,-243.15 228.19,-232.57 223.86,-221 220.75,-212.67 222.58,-209.8 223.86,-201 230.34,-156.63 228.95,-141.59 254.86,-105 259.99,-97.76 267.5,-91.29 273.95,-86.5"/>
<polygon fill="midnightblue" stroke="midnightblue" points="242.87,-253.97 252.59,-258.18 247.61,-248.83 242.87,-253.97"/>
</g>
<!-- Node7 -->
<g id="node7" class="node">
<title>Node7</title>
<g id="a_node7"><a xlink:href="classFootPedal.html" target="_top" xlink:title=" ">
<polygon fill="none" stroke="black" points="233.36,-201.5 233.36,-220.5 294.36,-220.5 294.36,-201.5 233.36,-201.5"/>
<text text-anchor="middle" x="263.86" y="-208.5" font-family="Helvetica,sans-Serif" font-size="10.00">FootPedal</text>
</a>
</g>
</g>
<!-- Node5&#45;&gt;Node7 -->
<g id="edge8" class="edge">
<title>Node5&#45;&gt;Node7</title>
<path fill="none" stroke="midnightblue" d="M263.86,-248.12C263.86,-238.82 263.86,-228.06 263.86,-220.71"/>
<polygon fill="midnightblue" stroke="midnightblue" points="260.36,-248.41 263.86,-258.41 267.36,-248.41 260.36,-248.41"/>
</g>
<!-- Node8 -->
<g id="node8" class="node">
<title>Node8</title>
<g id="a_node8"><a xlink:href="classEposThread.html" target="_top" xlink:title=" ">
<polygon fill="none" stroke="black" points="319.86,-134.5 319.86,-153.5 387.86,-153.5 387.86,-134.5 319.86,-134.5"/>
<text text-anchor="middle" x="353.86" y="-141.5" font-family="Helvetica,sans-Serif" font-size="10.00">EposThread</text>
</a>
</g>
</g>
<!-- Node5&#45;&gt;Node8 -->
<g id="edge10" class="edge">
<title>Node5&#45;&gt;Node8</title>
<path fill="none" stroke="midnightblue" d="M278.71,-251C286.49,-242.35 296.01,-231.35 303.86,-221 321.61,-197.59 339.96,-168.08 348.67,-153.69"/>
<polygon fill="midnightblue" stroke="midnightblue" points="276.05,-248.73 271.89,-258.47 281.22,-253.45 276.05,-248.73"/>
</g>
<!-- Node6 -->
<g id="node6" class="node">
<title>Node6</title>
<g id="a_node6"><a xlink:href="classMaxonMotor.html" target="_top" xlink:title=" ">
<polygon fill="none" stroke="black" points="377.86,-201.5 377.86,-220.5 447.86,-220.5 447.86,-201.5 377.86,-201.5"/>
<text text-anchor="middle" x="412.86" y="-208.5" font-family="Helvetica,sans-Serif" font-size="10.00">MaxonMotor</text>
</a>
</g>
</g>
<!-- Node6&#45;&gt;Node4 -->
<g id="edge6" class="edge">
<title>Node6&#45;&gt;Node4</title>
<path fill="none" stroke="#9a32cd" stroke-dasharray="5,2" d="M415.88,-191.29C418.52,-167.63 418.91,-127.28 395.86,-105 376.45,-86.23 346.14,-79.87 322.4,-77.98"/>
<polygon fill="#9a32cd" stroke="#9a32cd" points="412.38,-191.03 414.49,-201.42 419.31,-191.98 412.38,-191.03"/>
<text text-anchor="middle" x="436.36" y="-141.5" font-family="Helvetica,sans-Serif" font-size="10.00"> m_Motor</text>
</g>
<!-- Node6&#45;&gt;Node8 -->
<g id="edge11" class="edge">
<title>Node6&#45;&gt;Node8</title>
<path fill="none" stroke="#9a32cd" stroke-dasharray="5,2" d="M384.12,-196.09C378.53,-192.42 373.1,-188.05 368.86,-183 361.66,-174.42 357.63,-161.95 355.61,-153.67"/>
<polygon fill="#9a32cd" stroke="#9a32cd" points="382.5,-199.2 392.88,-201.28 386.06,-193.18 382.5,-199.2"/>
<text text-anchor="middle" x="391.86" y="-175" font-family="Helvetica,sans-Serif" font-size="10.00"> m_pMotor</text>
</g>
<!-- Node7&#45;&gt;Node4 -->
<g id="edge7" class="edge">
<title>Node7&#45;&gt;Node4</title>
<path fill="none" stroke="#9a32cd" stroke-dasharray="5,2" d="M255.8,-191.96C249.96,-176.4 244.03,-153.42 249.86,-134 255.5,-115.25 269.67,-96.99 278.75,-86.66"/>
<polygon fill="#9a32cd" stroke="#9a32cd" points="252.65,-193.5 259.68,-201.42 259.12,-190.84 252.65,-193.5"/>
<text text-anchor="middle" x="280.36" y="-141.5" font-family="Helvetica,sans-Serif" font-size="10.00"> m_FootPedal</text>
</g>
<!-- Node7&#45;&gt;Node8 -->
<g id="edge12" class="edge">
<title>Node7&#45;&gt;Node8</title>
<path fill="none" stroke="#9a32cd" stroke-dasharray="5,2" d="M265.64,-191.38C267.14,-184.55 269.89,-177.22 274.86,-172 281.31,-165.23 301.32,-158.43 319.59,-153.35"/>
<polygon fill="#9a32cd" stroke="#9a32cd" points="262.16,-190.92 264.14,-201.33 269.09,-191.96 262.16,-190.92"/>
<text text-anchor="middle" x="297.86" y="-175" font-family="Helvetica,sans-Serif" font-size="10.00"> m_pPedal</text>
</g>
<!-- Node8&#45;&gt;Node4 -->
<g id="edge9" class="edge">
<title>Node8&#45;&gt;Node4</title>
<path fill="none" stroke="#9a32cd" stroke-dasharray="5,2" d="M337.37,-127C324.23,-114.25 306.34,-96.89 295.76,-86.63"/>
<polygon fill="#9a32cd" stroke="#9a32cd" points="335.21,-129.78 344.83,-134.23 340.09,-124.76 335.21,-129.78"/>
<text text-anchor="middle" x="357.86" y="-108" font-family="Helvetica,sans-Serif" font-size="10.00"> m_EposThread</text>
</g>
<!-- Node9&#45;&gt;Node1 -->
<g id="edge13" class="edge">
<title>Node9&#45;&gt;Node1</title>
<path fill="none" stroke="#9a32cd" stroke-dasharray="5,2" d="M172.99,-58.13C169.17,-51.4 164.33,-43.96 158.86,-38 152.3,-30.85 143.59,-24.38 136.27,-19.57"/>
<polygon fill="#9a32cd" stroke="#9a32cd" points="170.02,-60 177.8,-67.19 176.2,-56.72 170.02,-60"/>
<text text-anchor="middle" x="197.36" y="-41" font-family="Helvetica,sans-Serif" font-size="10.00"> init_window_</text>
</g>
</g>
</svg>
