<?xml version="1.0" encoding="UTF-8" standalone="no"?>
<!DOCTYPE svg PUBLIC "-//W3C//DTD SVG 1.1//EN"
 "http://www.w3.org/Graphics/SVG/1.1/DTD/svg11.dtd">
<!-- Generated by graphviz version 2.50.0 (20220203.2022)
 -->
<!-- Title: EposThread Pages: 1 -->
<svg width="201pt" height="152pt"
 viewBox="0.00 0.00 201.00 152.00" xmlns="http://www.w3.org/2000/svg" xmlns:xlink="http://www.w3.org/1999/xlink">
<g id="graph0" class="graph" transform="scale(1 1) rotate(0) translate(4 148)">
<title>EposThread</title>
<!-- Node1 -->
<g id="node1" class="node">
<title>Node1</title>
<g id="a_node1"><a xlink:title=" ">
<polygon fill="#bfbfbf" stroke="black" points="40,-0.5 40,-19.5 108,-19.5 108,-0.5 40,-0.5"/>
<text text-anchor="middle" x="74" y="-7.5" font-family="Helvetica,sans-Serif" font-size="10.00">EposThread</text>
</a>
</g>
</g>
<!-- Node2 -->
<g id="node2" class="node">
<title>Node2</title>
<g id="a_node2"><a xlink:title=" ">
<polygon fill="none" stroke="black" points="0,-124.5 0,-143.5 54,-143.5 54,-124.5 0,-124.5"/>
<text text-anchor="middle" x="27" y="-131.5" font-family="Helvetica,sans-Serif" font-size="10.00">QThread</text>
</a>
</g>
</g>
<!-- Node2&#45;&gt;Node1 -->
<g id="edge1" class="edge">
<title>Node2&#45;&gt;Node1</title>
<path fill="none" stroke="midnightblue" d="M26.48,-114.1C26.7,-100.57 28.25,-82.15 34,-67 41.13,-48.24 56.13,-29.98 65.6,-19.65"/>
<polygon fill="midnightblue" stroke="midnightblue" points="22.98,-114.15 26.54,-124.13 29.98,-114.11 22.98,-114.15"/>
</g>
<!-- Node4 -->
<g id="node4" class="node">
<title>Node4</title>
<g id="a_node4"><a xlink:href="classFootPedal.html" target="_top" xlink:title=" ">
<polygon fill="none" stroke="black" points="43.5,-67.5 43.5,-86.5 104.5,-86.5 104.5,-67.5 43.5,-67.5"/>
<text text-anchor="middle" x="74" y="-74.5" font-family="Helvetica,sans-Serif" font-size="10.00">FootPedal</text>
</a>
</g>
</g>
<!-- Node2&#45;&gt;Node4 -->
<g id="edge4" class="edge">
<title>Node2&#45;&gt;Node4</title>
<path fill="none" stroke="midnightblue" d="M41.07,-116.53C49.44,-106.74 59.73,-94.7 66.55,-86.71"/>
<polygon fill="midnightblue" stroke="midnightblue" points="38.18,-114.53 34.34,-124.41 43.5,-119.08 38.18,-114.53"/>
</g>
<!-- Node3 -->
<g id="node3" class="node">
<title>Node3</title>
<g id="a_node3"><a xlink:href="classMaxonMotor.html" target="_top" xlink:title=" ">
<polygon fill="none" stroke="black" points="123,-67.5 123,-86.5 193,-86.5 193,-67.5 123,-67.5"/>
<text text-anchor="middle" x="158" y="-74.5" font-family="Helvetica,sans-Serif" font-size="10.00">MaxonMotor</text>
</a>
</g>
</g>
<!-- Node3&#45;&gt;Node1 -->
<g id="edge2" class="edge">
<title>Node3&#45;&gt;Node1</title>
<path fill="none" stroke="#9a32cd" stroke-dasharray="5,2" d="M145.07,-59.11C139.14,-52.05 131.72,-44.09 124,-38 114.71,-30.67 103.14,-24.28 93.47,-19.56"/>
<polygon fill="#9a32cd" stroke="#9a32cd" points="142.71,-61.76 151.69,-67.37 148.17,-57.38 142.71,-61.76"/>
<text text-anchor="middle" x="158" y="-41" font-family="Helvetica,sans-Serif" font-size="10.00"> m_pMotor</text>
</g>
<!-- Node4&#45;&gt;Node1 -->
<g id="edge3" class="edge">
<title>Node4&#45;&gt;Node1</title>
<path fill="none" stroke="#9a32cd" stroke-dasharray="5,2" d="M74,-57.04C74,-44.67 74,-29.12 74,-19.63"/>
<polygon fill="#9a32cd" stroke="#9a32cd" points="70.5,-57.23 74,-67.23 77.5,-57.23 70.5,-57.23"/>
<text text-anchor="middle" x="97" y="-41" font-family="Helvetica,sans-Serif" font-size="10.00"> m_pPedal</text>
</g>
</g>
</svg>
