<?xml version="1.0" encoding="UTF-8" standalone="no"?>
<!DOCTYPE svg PUBLIC "-//W3C//DTD SVG 1.1//EN"
 "http://www.w3.org/Graphics/SVG/1.1/DTD/svg11.dtd">
<!-- Generated by graphviz version 2.50.0 (20220203.2022)
 -->
<!-- Title: include/emergency_window.h Pages: 1 -->
<svg width="309pt" height="140pt"
 viewBox="0.00 0.00 308.50 140.00" xmlns="http://www.w3.org/2000/svg" xmlns:xlink="http://www.w3.org/1999/xlink">
<g id="graph0" class="graph" transform="scale(1 1) rotate(0) translate(4 136)">
<title>include/emergency_window.h</title>
<!-- Node1 -->
<g id="node1" class="node">
<title>Node1</title>
<g id="a_node1"><a xlink:title="Header file includes emergency window class which includes emergency messages, in case of any error o...">
<polygon fill="#bfbfbf" stroke="black" points="88.5,-112.5 88.5,-131.5 231.5,-131.5 231.5,-112.5 88.5,-112.5"/>
<text text-anchor="middle" x="160" y="-119.5" font-family="Helvetica,sans-Serif" font-size="10.00">include/emergency_window.h</text>
</a>
</g>
</g>
<!-- Node2 -->
<g id="node2" class="node">
<title>Node2</title>
<g id="a_node2"><a xlink:href="mainwindow_8h.html" target="_top" xlink:title=" ">
<polygon fill="none" stroke="black" points="33,-56.5 33,-75.5 145,-75.5 145,-56.5 33,-56.5"/>
<text text-anchor="middle" x="89" y="-63.5" font-family="Helvetica,sans-Serif" font-size="10.00">include/mainwindow.h</text>
</a>
</g>
</g>
<!-- Node1&#45;&gt;Node2 -->
<g id="edge1" class="edge">
<title>Node1&#45;&gt;Node2</title>
<path fill="none" stroke="midnightblue" d="M140.41,-106.1C127.63,-96.38 111.39,-84.03 100.61,-75.83"/>
<polygon fill="midnightblue" stroke="midnightblue" points="138.51,-109.06 148.59,-112.32 142.75,-103.48 138.51,-109.06"/>
</g>
<!-- Node5 -->
<g id="node5" class="node">
<title>Node5</title>
<g id="a_node5"><a xlink:href="emergency__window_8cpp.html" target="_top" xlink:title=" ">
<polygon fill="none" stroke="black" points="163.5,-56.5 163.5,-75.5 300.5,-75.5 300.5,-56.5 163.5,-56.5"/>
<text text-anchor="middle" x="232" y="-63.5" font-family="Helvetica,sans-Serif" font-size="10.00">src/emergency_window.cpp</text>
</a>
</g>
</g>
<!-- Node1&#45;&gt;Node5 -->
<g id="edge4" class="edge">
<title>Node1&#45;&gt;Node5</title>
<path fill="none" stroke="midnightblue" d="M179.87,-106.1C192.82,-96.38 209.3,-84.03 220.22,-75.83"/>
<polygon fill="midnightblue" stroke="midnightblue" points="177.47,-103.52 171.57,-112.32 181.67,-109.12 177.47,-103.52"/>
</g>
<!-- Node3 -->
<g id="node3" class="node">
<title>Node3</title>
<g id="a_node3"><a xlink:href="main_8cpp.html" target="_top" xlink:title=" ">
<polygon fill="none" stroke="black" points="0,-0.5 0,-19.5 72,-19.5 72,-0.5 0,-0.5"/>
<text text-anchor="middle" x="36" y="-7.5" font-family="Helvetica,sans-Serif" font-size="10.00">src/main.cpp</text>
</a>
</g>
</g>
<!-- Node2&#45;&gt;Node3 -->
<g id="edge2" class="edge">
<title>Node2&#45;&gt;Node3</title>
<path fill="none" stroke="midnightblue" d="M73.02,-48.72C63.68,-39.2 52.25,-27.56 44.59,-19.75"/>
<polygon fill="midnightblue" stroke="midnightblue" points="70.75,-51.4 80.25,-56.08 75.74,-46.49 70.75,-51.4"/>
</g>
<!-- Node4 -->
<g id="node4" class="node">
<title>Node4</title>
<g id="a_node4"><a xlink:href="mainwindow_8cpp.html" target="_top" xlink:title=" ">
<polygon fill="none" stroke="black" points="90.5,-0.5 90.5,-19.5 195.5,-19.5 195.5,-0.5 90.5,-0.5"/>
<text text-anchor="middle" x="143" y="-7.5" font-family="Helvetica,sans-Serif" font-size="10.00">src/mainwindow.cpp</text>
</a>
</g>
</g>
<!-- Node2&#45;&gt;Node4 -->
<g id="edge3" class="edge">
<title>Node2&#45;&gt;Node4</title>
<path fill="none" stroke="midnightblue" d="M105,-49C114.57,-39.43 126.36,-27.64 134.25,-19.75"/>
<polygon fill="midnightblue" stroke="midnightblue" points="102.51,-46.54 97.92,-56.08 107.46,-51.49 102.51,-46.54"/>
</g>
</g>
</svg>
