<?xml version="1.0" encoding="UTF-8" standalone="no"?>
<!DOCTYPE svg PUBLIC "-//W3C//DTD SVG 1.1//EN"
 "http://www.w3.org/Graphics/SVG/1.1/DTD/svg11.dtd">
<!-- Generated by graphviz version 2.50.0 (20220203.2022)
 -->
<!-- Title: src/emergency_window.cpp Pages: 1 -->
<svg width="301pt" height="140pt"
 viewBox="0.00 0.00 300.50 140.00" xmlns="http://www.w3.org/2000/svg" xmlns:xlink="http://www.w3.org/1999/xlink">
<g id="graph0" class="graph" transform="scale(1 1) rotate(0) translate(4 136)">
<title>src/emergency_window.cpp</title>
<!-- Node1 -->
<g id="node1" class="node">
<title>Node1</title>
<g id="a_node1"><a xlink:title=" ">
<polygon fill="#bfbfbf" stroke="black" points="91.5,-112.5 91.5,-131.5 228.5,-131.5 228.5,-112.5 91.5,-112.5"/>
<text text-anchor="middle" x="160" y="-119.5" font-family="Helvetica,sans-Serif" font-size="10.00">src/emergency_window.cpp</text>
</a>
</g>
</g>
<!-- Node2 -->
<g id="node2" class="node">
<title>Node2</title>
<g id="a_node2"><a xlink:href="emergency__window_8h.html" target="_top" xlink:title="Header file includes emergency window class which includes emergency messages, in case of any error o...">
<polygon fill="none" stroke="black" points="14.5,-56.5 14.5,-75.5 157.5,-75.5 157.5,-56.5 14.5,-56.5"/>
<text text-anchor="middle" x="86" y="-63.5" font-family="Helvetica,sans-Serif" font-size="10.00">include/emergency_window.h</text>
</a>
</g>
</g>
<!-- Node1&#45;&gt;Node2 -->
<g id="edge1" class="edge">
<title>Node1&#45;&gt;Node2</title>
<path fill="none" stroke="midnightblue" d="M148.11,-112.32C136.85,-104.11 119.71,-91.6 106.29,-81.81"/>
<polygon fill="midnightblue" stroke="midnightblue" points="108.25,-78.9 98.11,-75.83 104.12,-84.56 108.25,-78.9"/>
</g>
<!-- Node5 -->
<g id="node5" class="node">
<title>Node5</title>
<g id="a_node5"><a xlink:title=" ">
<polygon fill="none" stroke="#bfbfbf" points="175.5,-56.5 175.5,-75.5 292.5,-75.5 292.5,-56.5 175.5,-56.5"/>
<text text-anchor="middle" x="234" y="-63.5" font-family="Helvetica,sans-Serif" font-size="10.00">ui_emergencywindow.h</text>
</a>
</g>
</g>
<!-- Node1&#45;&gt;Node5 -->
<g id="edge4" class="edge">
<title>Node1&#45;&gt;Node5</title>
<path fill="none" stroke="midnightblue" d="M171.89,-112.32C183.15,-104.11 200.29,-91.6 213.71,-81.81"/>
<polygon fill="midnightblue" stroke="midnightblue" points="215.88,-84.56 221.89,-75.83 211.75,-78.9 215.88,-84.56"/>
</g>
<!-- Node3 -->
<g id="node3" class="node">
<title>Node3</title>
<g id="a_node3"><a xlink:title=" ">
<polygon fill="none" stroke="#bfbfbf" points="0,-0.5 0,-19.5 80,-19.5 80,-0.5 0,-0.5"/>
<text text-anchor="middle" x="40" y="-7.5" font-family="Helvetica,sans-Serif" font-size="10.00">QMainWindow</text>
</a>
</g>
</g>
<!-- Node2&#45;&gt;Node3 -->
<g id="edge2" class="edge">
<title>Node2&#45;&gt;Node3</title>
<path fill="none" stroke="midnightblue" d="M78.4,-56.08C71.77,-48.3 61.98,-36.8 53.94,-27.37"/>
<polygon fill="midnightblue" stroke="midnightblue" points="56.6,-25.09 47.45,-19.75 51.27,-29.63 56.6,-25.09"/>
</g>
<!-- Node4 -->
<g id="node4" class="node">
<title>Node4</title>
<g id="a_node4"><a xlink:href="m__defines_8h.html" target="_top" xlink:title="Header file includes global definitions, including configuration values, pin mapping,...">
<polygon fill="none" stroke="black" points="98,-0.5 98,-19.5 166,-19.5 166,-0.5 98,-0.5"/>
<text text-anchor="middle" x="132" y="-7.5" font-family="Helvetica,sans-Serif" font-size="10.00">m_defines.h</text>
</a>
</g>
</g>
<!-- Node2&#45;&gt;Node4 -->
<g id="edge3" class="edge">
<title>Node2&#45;&gt;Node4</title>
<path fill="none" stroke="midnightblue" d="M93.6,-56.08C100.23,-48.3 110.02,-36.8 118.06,-27.37"/>
<polygon fill="midnightblue" stroke="midnightblue" points="120.73,-29.63 124.55,-19.75 115.4,-25.09 120.73,-29.63"/>
</g>
</g>
</svg>
