<?xml version="1.0" encoding="UTF-8" standalone="no"?>
<!DOCTYPE svg PUBLIC "-//W3C//DTD SVG 1.1//EN"
 "http://www.w3.org/Graphics/SVG/1.1/DTD/svg11.dtd">
<!-- Generated by graphviz version 2.50.0 (20220203.2022)
 -->
<!-- Title: include/epos4_can.h Pages: 1 -->
<svg width="355pt" height="252pt"
 viewBox="0.00 0.00 355.46 252.00" xmlns="http://www.w3.org/2000/svg" xmlns:xlink="http://www.w3.org/1999/xlink">
<g id="graph0" class="graph" transform="scale(1 1) rotate(0) translate(4 248)">
<title>include/epos4_can.h</title>
<!-- Node1 -->
<g id="node1" class="node">
<title>Node1</title>
<g id="a_node1"><a xlink:title=" ">
<polygon fill="#bfbfbf" stroke="black" points="127.96,-224.5 127.96,-243.5 232.96,-243.5 232.96,-224.5 127.96,-224.5"/>
<text text-anchor="middle" x="180.46" y="-231.5" font-family="Helvetica,sans-Serif" font-size="10.00">include/epos4_can.h</text>
</a>
</g>
</g>
<!-- Node2 -->
<g id="node2" class="node">
<title>Node2</title>
<g id="a_node2"><a xlink:href="eposthread_8h.html" target="_top" xlink:title="Header file includes EposThread class, which implements time consuming processes related to EPOS cont...">
<polygon fill="none" stroke="black" points="87.46,-168.5 87.46,-187.5 193.46,-187.5 193.46,-168.5 87.46,-168.5"/>
<text text-anchor="middle" x="140.46" y="-175.5" font-family="Helvetica,sans-Serif" font-size="10.00">include/eposthread.h</text>
</a>
</g>
</g>
<!-- Node1&#45;&gt;Node2 -->
<g id="edge1" class="edge">
<title>Node1&#45;&gt;Node2</title>
<path fill="none" stroke="midnightblue" d="M167.76,-215.86C160.83,-206.5 152.55,-195.33 146.94,-187.75"/>
<polygon fill="midnightblue" stroke="midnightblue" points="165.09,-218.13 173.85,-224.08 170.71,-213.96 165.09,-218.13"/>
</g>
<!-- Node3 -->
<g id="node3" class="node">
<title>Node3</title>
<g id="a_node3"><a xlink:href="mainwindow_8h.html" target="_top" xlink:title=" ">
<polygon fill="none" stroke="black" points="62.46,-56.5 62.46,-75.5 174.46,-75.5 174.46,-56.5 62.46,-56.5"/>
<text text-anchor="middle" x="118.46" y="-63.5" font-family="Helvetica,sans-Serif" font-size="10.00">include/mainwindow.h</text>
</a>
</g>
</g>
<!-- Node1&#45;&gt;Node3 -->
<g id="edge9" class="edge">
<title>Node1&#45;&gt;Node3</title>
<path fill="none" stroke="midnightblue" d="M132.51,-221.59C89.12,-208.32 28.32,-181.59 3.46,-132 -11.86,-101.45 29.61,-84.44 66.96,-75.56"/>
<polygon fill="midnightblue" stroke="midnightblue" points="131.73,-225.01 142.31,-224.45 133.69,-218.29 131.73,-225.01"/>
</g>
<!-- Node6 -->
<g id="node6" class="node">
<title>Node6</title>
<g id="a_node6"><a xlink:href="motorthread_8h.html" target="_top" xlink:title="Header file includes motorThread class blueprint which is encapsulation of main thread of debrider co...">
<polygon fill="none" stroke="black" points="168.46,-112.5 168.46,-131.5 278.46,-131.5 278.46,-112.5 168.46,-112.5"/>
<text text-anchor="middle" x="223.46" y="-119.5" font-family="Helvetica,sans-Serif" font-size="10.00">include/motorthread.h</text>
</a>
</g>
</g>
<!-- Node1&#45;&gt;Node6 -->
<g id="edge10" class="edge">
<title>Node1&#45;&gt;Node6</title>
<path fill="none" stroke="midnightblue" d="M189.86,-215.25C194,-207.08 198.76,-197.17 202.46,-188 210.45,-168.21 217.58,-144.11 221.12,-131.55"/>
<polygon fill="midnightblue" stroke="midnightblue" points="186.71,-213.72 185.22,-224.21 192.93,-216.94 186.71,-213.72"/>
</g>
<!-- Node9 -->
<g id="node9" class="node">
<title>Node9</title>
<g id="a_node9"><a xlink:href="epos4__can_8cpp.html" target="_top" xlink:title=" ">
<polygon fill="none" stroke="black" points="249.46,-168.5 249.46,-187.5 347.46,-187.5 347.46,-168.5 249.46,-168.5"/>
<text text-anchor="middle" x="298.46" y="-175.5" font-family="Helvetica,sans-Serif" font-size="10.00">src/epos4_can.cpp</text>
</a>
</g>
</g>
<!-- Node1&#45;&gt;Node9 -->
<g id="edge11" class="edge">
<title>Node1&#45;&gt;Node9</title>
<path fill="none" stroke="midnightblue" d="M208.36,-220.23C230.43,-210.13 260.64,-196.31 279.85,-187.52"/>
<polygon fill="midnightblue" stroke="midnightblue" points="206.79,-217.1 199.16,-224.44 209.71,-223.46 206.79,-217.1"/>
</g>
<!-- Node2&#45;&gt;Node3 -->
<g id="edge2" class="edge">
<title>Node2&#45;&gt;Node3</title>
<path fill="none" stroke="midnightblue" d="M136.73,-158.35C131.91,-134.25 123.72,-93.31 120.18,-75.59"/>
<polygon fill="midnightblue" stroke="midnightblue" points="133.34,-159.25 138.73,-168.37 140.2,-157.88 133.34,-159.25"/>
</g>
<!-- Node2&#45;&gt;Node6 -->
<g id="edge5" class="edge">
<title>Node2&#45;&gt;Node6</title>
<path fill="none" stroke="midnightblue" d="M162.56,-162.62C177.72,-152.76 197.34,-139.99 210.16,-131.65"/>
<polygon fill="midnightblue" stroke="midnightblue" points="160.27,-159.94 153.79,-168.32 164.09,-165.8 160.27,-159.94"/>
</g>
<!-- Node8 -->
<g id="node8" class="node">
<title>Node8</title>
<g id="a_node8"><a xlink:href="eposthread_8cpp.html" target="_top" xlink:title=" ">
<polygon fill="none" stroke="black" points="12.96,-112.5 12.96,-131.5 111.96,-131.5 111.96,-112.5 12.96,-112.5"/>
<text text-anchor="middle" x="62.46" y="-119.5" font-family="Helvetica,sans-Serif" font-size="10.00">src/eposthread.cpp</text>
</a>
</g>
</g>
<!-- Node2&#45;&gt;Node8 -->
<g id="edge8" class="edge">
<title>Node2&#45;&gt;Node8</title>
<path fill="none" stroke="midnightblue" d="M119.69,-162.62C105.44,-152.76 87,-139.99 74.96,-131.65"/>
<polygon fill="midnightblue" stroke="midnightblue" points="117.71,-165.51 127.93,-168.32 121.7,-159.75 117.71,-165.51"/>
</g>
<!-- Node4 -->
<g id="node4" class="node">
<title>Node4</title>
<g id="a_node4"><a xlink:href="main_8cpp.html" target="_top" xlink:title=" ">
<polygon fill="none" stroke="black" points="29.46,-0.5 29.46,-19.5 101.46,-19.5 101.46,-0.5 29.46,-0.5"/>
<text text-anchor="middle" x="65.46" y="-7.5" font-family="Helvetica,sans-Serif" font-size="10.00">src/main.cpp</text>
</a>
</g>
</g>
<!-- Node3&#45;&gt;Node4 -->
<g id="edge3" class="edge">
<title>Node3&#45;&gt;Node4</title>
<path fill="none" stroke="midnightblue" d="M102.48,-48.72C93.14,-39.2 81.71,-27.56 74.05,-19.75"/>
<polygon fill="midnightblue" stroke="midnightblue" points="100.2,-51.4 109.71,-56.08 105.2,-46.49 100.2,-51.4"/>
</g>
<!-- Node5 -->
<g id="node5" class="node">
<title>Node5</title>
<g id="a_node5"><a xlink:href="mainwindow_8cpp.html" target="_top" xlink:title=" ">
<polygon fill="none" stroke="black" points="119.96,-0.5 119.96,-19.5 224.96,-19.5 224.96,-0.5 119.96,-0.5"/>
<text text-anchor="middle" x="172.46" y="-7.5" font-family="Helvetica,sans-Serif" font-size="10.00">src/mainwindow.cpp</text>
</a>
</g>
</g>
<!-- Node3&#45;&gt;Node5 -->
<g id="edge4" class="edge">
<title>Node3&#45;&gt;Node5</title>
<path fill="none" stroke="midnightblue" d="M134.46,-49C144.03,-39.43 155.82,-27.64 163.71,-19.75"/>
<polygon fill="midnightblue" stroke="midnightblue" points="131.97,-46.54 127.38,-56.08 136.92,-51.49 131.97,-46.54"/>
</g>
<!-- Node6&#45;&gt;Node3 -->
<g id="edge6" class="edge">
<title>Node6&#45;&gt;Node3</title>
<path fill="none" stroke="midnightblue" d="M197.65,-107.73C178.21,-97.73 152.11,-84.31 135.29,-75.65"/>
<polygon fill="midnightblue" stroke="midnightblue" points="196.1,-110.86 206.59,-112.32 199.3,-104.64 196.1,-110.86"/>
</g>
<!-- Node7 -->
<g id="node7" class="node">
<title>Node7</title>
<g id="a_node7"><a xlink:href="motorthread_8cpp.html" target="_top" xlink:title=" ">
<polygon fill="none" stroke="black" points="192.96,-56.5 192.96,-75.5 295.96,-75.5 295.96,-56.5 192.96,-56.5"/>
<text text-anchor="middle" x="244.46" y="-63.5" font-family="Helvetica,sans-Serif" font-size="10.00">src/motorthread.cpp</text>
</a>
</g>
</g>
<!-- Node6&#45;&gt;Node7 -->
<g id="edge7" class="edge">
<title>Node6&#45;&gt;Node7</title>
<path fill="none" stroke="midnightblue" d="M230.58,-102.69C234.12,-93.59 238.23,-83.01 241.06,-75.75"/>
<polygon fill="midnightblue" stroke="midnightblue" points="227.29,-101.49 226.93,-112.08 233.81,-104.03 227.29,-101.49"/>
</g>
</g>
</svg>
