<?xml version="1.0" encoding="UTF-8" standalone="no"?>
<!DOCTYPE svg PUBLIC "-//W3C//DTD SVG 1.1//EN"
 "http://www.w3.org/Graphics/SVG/1.1/DTD/svg11.dtd">
<!-- Generated by graphviz version 2.50.0 (20220203.2022)
 -->
<!-- Title: include/epos4_can.h Pages: 1 -->
<svg width="350pt" height="95pt"
 viewBox="0.00 0.00 350.00 95.00" xmlns="http://www.w3.org/2000/svg" xmlns:xlink="http://www.w3.org/1999/xlink">
<g id="graph0" class="graph" transform="scale(1 1) rotate(0) translate(4 91)">
<title>include/epos4_can.h</title>
<!-- Node1 -->
<g id="node1" class="node">
<title>Node1</title>
<g id="a_node1"><a xlink:title=" ">
<polygon fill="#bfbfbf" stroke="black" points="135.5,-67.5 135.5,-86.5 240.5,-86.5 240.5,-67.5 135.5,-67.5"/>
<text text-anchor="middle" x="188" y="-74.5" font-family="Helvetica,sans-Serif" font-size="10.00">include/epos4_can.h</text>
</a>
</g>
</g>
<!-- Node2 -->
<g id="node2" class="node">
<title>Node2</title>
<g id="a_node2"><a xlink:title=" ">
<polygon fill="none" stroke="#bfbfbf" points="0,-0.5 0,-30.5 106,-30.5 106,-0.5 0,-0.5"/>
<text text-anchor="start" x="8" y="-18.5" font-family="Helvetica,sans-Serif" font-size="10.00">EposCmdLib_6.5.1.0</text>
<text text-anchor="middle" x="53" y="-7.5" font-family="Helvetica,sans-Serif" font-size="10.00">/include/Definitions.h</text>
</a>
</g>
</g>
<!-- Node1&#45;&gt;Node2 -->
<g id="edge1" class="edge">
<title>Node1&#45;&gt;Node2</title>
<path fill="none" stroke="midnightblue" d="M168.66,-67.48C149.26,-58.93 118.8,-45.5 94.01,-34.57"/>
<polygon fill="midnightblue" stroke="midnightblue" points="95.38,-31.35 84.82,-30.52 92.56,-37.76 95.38,-31.35"/>
</g>
<!-- Node3 -->
<g id="node3" class="node">
<title>Node3</title>
<g id="a_node3"><a xlink:title=" ">
<polygon fill="none" stroke="#bfbfbf" points="124,-6 124,-25 178,-25 178,-6 124,-6"/>
<text text-anchor="middle" x="151" y="-13" font-family="Helvetica,sans-Serif" font-size="10.00">iostream</text>
</a>
</g>
</g>
<!-- Node1&#45;&gt;Node3 -->
<g id="edge2" class="edge">
<title>Node1&#45;&gt;Node3</title>
<path fill="none" stroke="midnightblue" d="M182.7,-67.48C177.26,-58.73 168.64,-44.87 161.76,-33.81"/>
<polygon fill="midnightblue" stroke="midnightblue" points="164.54,-31.65 156.29,-25.01 158.6,-35.35 164.54,-31.65"/>
</g>
<!-- Node4 -->
<g id="node4" class="node">
<title>Node4</title>
<g id="a_node4"><a xlink:title=" ">
<polygon fill="none" stroke="#bfbfbf" points="196.5,-6 196.5,-25 255.5,-25 255.5,-6 196.5,-6"/>
<text text-anchor="middle" x="226" y="-13" font-family="Helvetica,sans-Serif" font-size="10.00">wiringPi.h</text>
</a>
</g>
</g>
<!-- Node1&#45;&gt;Node4 -->
<g id="edge3" class="edge">
<title>Node1&#45;&gt;Node4</title>
<path fill="none" stroke="midnightblue" d="M193.44,-67.48C199.09,-58.64 208.06,-44.59 215.16,-33.48"/>
<polygon fill="midnightblue" stroke="midnightblue" points="218.13,-35.32 220.57,-25.01 212.23,-31.55 218.13,-35.32"/>
</g>
<!-- Node5 -->
<g id="node5" class="node">
<title>Node5</title>
<g id="a_node5"><a xlink:href="m__defines_8h.html" target="_top" xlink:title="Header file includes global definitions, including configuration values, pin mapping,...">
<polygon fill="none" stroke="black" points="274,-6 274,-25 342,-25 342,-6 274,-6"/>
<text text-anchor="middle" x="308" y="-13" font-family="Helvetica,sans-Serif" font-size="10.00">m_defines.h</text>
</a>
</g>
</g>
<!-- Node1&#45;&gt;Node5 -->
<g id="edge4" class="edge">
<title>Node1&#45;&gt;Node5</title>
<path fill="none" stroke="midnightblue" d="M205.19,-67.48C225.24,-57.53 258.6,-40.99 281.86,-29.46"/>
<polygon fill="midnightblue" stroke="midnightblue" points="283.43,-32.59 290.84,-25.01 280.32,-26.32 283.43,-32.59"/>
</g>
</g>
</svg>
