<?xml version="1.0" encoding="UTF-8" standalone="no"?>
<!DOCTYPE svg PUBLIC "-//W3C//DTD SVG 1.1//EN"
 "http://www.w3.org/Graphics/SVG/1.1/DTD/svg11.dtd">
<!-- Generated by graphviz version 2.50.0 (20220203.2022)
 -->
<!-- Title: include/eposthread.h Pages: 1 -->
<svg width="483pt" height="151pt"
 viewBox="0.00 0.00 483.00 151.00" xmlns="http://www.w3.org/2000/svg" xmlns:xlink="http://www.w3.org/1999/xlink">
<g id="graph0" class="graph" transform="scale(1 1) rotate(0) translate(4 147)">
<title>include/eposthread.h</title>
<!-- Node1 -->
<g id="node1" class="node">
<title>Node1</title>
<g id="a_node1"><a xlink:title="Header file includes EposThread class, which implements time consuming processes related to EPOS cont...">
<polygon fill="#bfbfbf" stroke="black" points="110,-123.5 110,-142.5 216,-142.5 216,-123.5 110,-123.5"/>
<text text-anchor="middle" x="163" y="-130.5" font-family="Helvetica,sans-Serif" font-size="10.00">include/eposthread.h</text>
</a>
</g>
</g>
<!-- Node2 -->
<g id="node2" class="node">
<title>Node2</title>
<g id="a_node2"><a xlink:title=" ">
<polygon fill="none" stroke="#bfbfbf" points="0,-6 0,-25 54,-25 54,-6 0,-6"/>
<text text-anchor="middle" x="27" y="-13" font-family="Helvetica,sans-Serif" font-size="10.00">QThread</text>
</a>
</g>
</g>
<!-- Node1&#45;&gt;Node2 -->
<g id="edge1" class="edge">
<title>Node1&#45;&gt;Node2</title>
<path fill="none" stroke="midnightblue" d="M129.17,-123.37C107.77,-116.47 80.7,-104.94 62,-87 46.94,-72.55 37.39,-50.25 32.14,-34.6"/>
<polygon fill="midnightblue" stroke="midnightblue" points="35.47,-33.54 29.17,-25.02 28.78,-35.6 35.47,-33.54"/>
</g>
<!-- Node3 -->
<g id="node3" class="node">
<title>Node3</title>
<g id="a_node3"><a xlink:href="epos4__can_8h.html" target="_top" xlink:title=" ">
<polygon fill="none" stroke="black" points="229.5,-67.5 229.5,-86.5 300.5,-86.5 300.5,-67.5 229.5,-67.5"/>
<text text-anchor="middle" x="265" y="-74.5" font-family="Helvetica,sans-Serif" font-size="10.00">epos4_can.h</text>
</a>
</g>
</g>
<!-- Node1&#45;&gt;Node3 -->
<g id="edge2" class="edge">
<title>Node1&#45;&gt;Node3</title>
<path fill="none" stroke="midnightblue" d="M179.39,-123.32C195.67,-114.7 220.87,-101.36 239.72,-91.39"/>
<polygon fill="midnightblue" stroke="midnightblue" points="241.45,-94.43 248.65,-86.65 238.18,-88.24 241.45,-94.43"/>
</g>
<!-- Node6 -->
<g id="node6" class="node">
<title>Node6</title>
<g id="a_node6"><a xlink:title=" ">
<polygon fill="none" stroke="#bfbfbf" points="133.5,-6 133.5,-25 192.5,-25 192.5,-6 133.5,-6"/>
<text text-anchor="middle" x="163" y="-13" font-family="Helvetica,sans-Serif" font-size="10.00">wiringPi.h</text>
</a>
</g>
</g>
<!-- Node1&#45;&gt;Node6 -->
<g id="edge13" class="edge">
<title>Node1&#45;&gt;Node6</title>
<path fill="none" stroke="midnightblue" d="M163,-123.32C163,-104.76 163,-60.84 163,-35.47"/>
<polygon fill="midnightblue" stroke="midnightblue" points="166.5,-35.28 163,-25.28 159.5,-35.28 166.5,-35.28"/>
</g>
<!-- Node7 -->
<g id="node7" class="node">
<title>Node7</title>
<g id="a_node7"><a xlink:href="m__defines_8h.html" target="_top" xlink:title="Header file includes global definitions, including configuration values, pin mapping,...">
<polygon fill="none" stroke="black" points="211,-6 211,-25 279,-25 279,-6 211,-6"/>
<text text-anchor="middle" x="245" y="-13" font-family="Helvetica,sans-Serif" font-size="10.00">m_defines.h</text>
</a>
</g>
</g>
<!-- Node1&#45;&gt;Node7 -->
<g id="edge12" class="edge">
<title>Node1&#45;&gt;Node7</title>
<path fill="none" stroke="midnightblue" d="M169.16,-123.32C182.7,-104.26 215.22,-58.45 232.96,-33.46"/>
<polygon fill="midnightblue" stroke="midnightblue" points="235.83,-35.46 238.77,-25.28 230.12,-31.41 235.83,-35.46"/>
</g>
<!-- Node8 -->
<g id="node8" class="node">
<title>Node8</title>
<g id="a_node8"><a xlink:href="footpedal_8h.html" target="_top" xlink:title="Header file includes footpedal class for opening port and reading data from foot pedal; reads one ana...">
<polygon fill="none" stroke="black" points="71,-67.5 71,-86.5 135,-86.5 135,-67.5 71,-67.5"/>
<text text-anchor="middle" x="103" y="-74.5" font-family="Helvetica,sans-Serif" font-size="10.00">footpedal.h</text>
</a>
</g>
</g>
<!-- Node1&#45;&gt;Node8 -->
<g id="edge7" class="edge">
<title>Node1&#45;&gt;Node8</title>
<path fill="none" stroke="midnightblue" d="M153.36,-123.32C144.49,-115.34 131.13,-103.31 120.39,-93.65"/>
<polygon fill="midnightblue" stroke="midnightblue" points="122.59,-90.92 112.82,-86.83 117.91,-96.13 122.59,-90.92"/>
</g>
<!-- Node4 -->
<g id="node4" class="node">
<title>Node4</title>
<g id="a_node4"><a xlink:title=" ">
<polygon fill="none" stroke="#bfbfbf" points="297,-0.5 297,-30.5 403,-30.5 403,-0.5 297,-0.5"/>
<text text-anchor="start" x="305" y="-18.5" font-family="Helvetica,sans-Serif" font-size="10.00">EposCmdLib_6.5.1.0</text>
<text text-anchor="middle" x="350" y="-7.5" font-family="Helvetica,sans-Serif" font-size="10.00">/include/Definitions.h</text>
</a>
</g>
</g>
<!-- Node3&#45;&gt;Node4 -->
<g id="edge3" class="edge">
<title>Node3&#45;&gt;Node4</title>
<path fill="none" stroke="midnightblue" d="M277.18,-67.48C288.69,-59.42 306.4,-47.02 321.47,-36.47"/>
<polygon fill="midnightblue" stroke="midnightblue" points="323.78,-39.12 329.97,-30.52 319.77,-33.39 323.78,-39.12"/>
</g>
<!-- Node5 -->
<g id="node5" class="node">
<title>Node5</title>
<g id="a_node5"><a xlink:title=" ">
<polygon fill="none" stroke="#bfbfbf" points="421,-6 421,-25 475,-25 475,-6 421,-6"/>
<text text-anchor="middle" x="448" y="-13" font-family="Helvetica,sans-Serif" font-size="10.00">iostream</text>
</a>
</g>
</g>
<!-- Node3&#45;&gt;Node5 -->
<g id="edge4" class="edge">
<title>Node3&#45;&gt;Node5</title>
<path fill="none" stroke="midnightblue" d="M295.66,-67.45C325.57,-58.91 372.24,-45.06 412,-31 413.91,-30.33 415.86,-29.61 417.82,-28.87"/>
<polygon fill="midnightblue" stroke="midnightblue" points="419.5,-31.97 427.56,-25.09 416.97,-25.45 419.5,-31.97"/>
</g>
<!-- Node3&#45;&gt;Node6 -->
<g id="edge5" class="edge">
<title>Node3&#45;&gt;Node6</title>
<path fill="none" stroke="midnightblue" d="M250.39,-67.48C233.65,-57.71 206,-41.58 186.28,-30.08"/>
<polygon fill="midnightblue" stroke="midnightblue" points="187.99,-27.02 177.59,-25.01 184.46,-33.07 187.99,-27.02"/>
</g>
<!-- Node3&#45;&gt;Node7 -->
<g id="edge6" class="edge">
<title>Node3&#45;&gt;Node7</title>
<path fill="none" stroke="midnightblue" d="M262.13,-67.48C259.28,-58.99 254.82,-45.7 251.16,-34.82"/>
<polygon fill="midnightblue" stroke="midnightblue" points="254.36,-33.37 247.86,-25.01 247.73,-35.6 254.36,-33.37"/>
</g>
<!-- Node8&#45;&gt;Node2 -->
<g id="edge8" class="edge">
<title>Node8&#45;&gt;Node2</title>
<path fill="none" stroke="midnightblue" d="M92.11,-67.48C80.03,-58.02 60.33,-42.6 45.76,-31.19"/>
<polygon fill="midnightblue" stroke="midnightblue" points="47.9,-28.42 37.87,-25.01 43.59,-33.93 47.9,-28.42"/>
</g>
<!-- Node8&#45;&gt;Node6 -->
<g id="edge9" class="edge">
<title>Node8&#45;&gt;Node6</title>
<path fill="none" stroke="midnightblue" d="M111.6,-67.48C120.86,-58.28 135.82,-43.46 147.21,-32.16"/>
<polygon fill="midnightblue" stroke="midnightblue" points="149.78,-34.54 154.42,-25.01 144.85,-29.57 149.78,-34.54"/>
</g>
<!-- Node8&#45;&gt;Node7 -->
<g id="edge10" class="edge">
<title>Node8&#45;&gt;Node7</title>
<path fill="none" stroke="midnightblue" d="M123.35,-67.48C147.39,-57.4 187.6,-40.55 215.16,-29"/>
<polygon fill="midnightblue" stroke="midnightblue" points="216.82,-32.1 224.69,-25.01 214.12,-25.65 216.82,-32.1"/>
</g>
<!-- Node9 -->
<g id="node9" class="node">
<title>Node9</title>
<g id="a_node9"><a xlink:title=" ">
<polygon fill="none" stroke="#bfbfbf" points="72.5,-6 72.5,-25 115.5,-25 115.5,-6 72.5,-6"/>
<text text-anchor="middle" x="94" y="-13" font-family="Helvetica,sans-Serif" font-size="10.00">time.h</text>
</a>
</g>
</g>
<!-- Node8&#45;&gt;Node9 -->
<g id="edge11" class="edge">
<title>Node8&#45;&gt;Node9</title>
<path fill="none" stroke="midnightblue" d="M101.71,-67.48C100.44,-59.08 98.46,-45.98 96.82,-35.16"/>
<polygon fill="midnightblue" stroke="midnightblue" points="100.24,-34.37 95.29,-25.01 93.32,-35.42 100.24,-34.37"/>
</g>
</g>
</svg>
