<?xml version="1.0" encoding="UTF-8" standalone="no"?>
<!DOCTYPE svg PUBLIC "-//W3C//DTD SVG 1.1//EN"
 "http://www.w3.org/Graphics/SVG/1.1/DTD/svg11.dtd">
<!-- Generated by graphviz version 2.50.0 (20220203.2022)
 -->
<!-- Title: include/eposthread.h Pages: 1 -->
<svg width="353pt" height="196pt"
 viewBox="0.00 0.00 352.50 196.00" xmlns="http://www.w3.org/2000/svg" xmlns:xlink="http://www.w3.org/1999/xlink">
<g id="graph0" class="graph" transform="scale(1 1) rotate(0) translate(4 192)">
<title>include/eposthread.h</title>
<!-- Node1 -->
<g id="node1" class="node">
<title>Node1</title>
<g id="a_node1"><a xlink:title="Header file includes EposThread class, which implements time consuming processes related to EPOS cont...">
<polygon fill="#bfbfbf" stroke="black" points="119,-168.5 119,-187.5 225,-187.5 225,-168.5 119,-168.5"/>
<text text-anchor="middle" x="172" y="-175.5" font-family="Helvetica,sans-Serif" font-size="10.00">include/eposthread.h</text>
</a>
</g>
</g>
<!-- Node2 -->
<g id="node2" class="node">
<title>Node2</title>
<g id="a_node2"><a xlink:href="mainwindow_8h.html" target="_top" xlink:title=" ">
<polygon fill="none" stroke="black" points="33,-56.5 33,-75.5 145,-75.5 145,-56.5 33,-56.5"/>
<text text-anchor="middle" x="89" y="-63.5" font-family="Helvetica,sans-Serif" font-size="10.00">include/mainwindow.h</text>
</a>
</g>
</g>
<!-- Node1&#45;&gt;Node2 -->
<g id="edge1" class="edge">
<title>Node1&#45;&gt;Node2</title>
<path fill="none" stroke="midnightblue" d="M144.74,-163.44C131.92,-155.81 117.41,-145.15 108,-132 95.55,-114.6 91.2,-89.09 89.72,-75.79"/>
<polygon fill="midnightblue" stroke="midnightblue" points="143.25,-166.62 153.69,-168.46 146.68,-160.51 143.25,-166.62"/>
</g>
<!-- Node5 -->
<g id="node5" class="node">
<title>Node5</title>
<g id="a_node5"><a xlink:href="motorthread_8h.html" target="_top" xlink:title="Header file includes motorThread class blueprint which is encapsulation of main thread of debrider co...">
<polygon fill="none" stroke="black" points="117,-112.5 117,-131.5 227,-131.5 227,-112.5 117,-112.5"/>
<text text-anchor="middle" x="172" y="-119.5" font-family="Helvetica,sans-Serif" font-size="10.00">include/motorthread.h</text>
</a>
</g>
</g>
<!-- Node1&#45;&gt;Node5 -->
<g id="edge4" class="edge">
<title>Node1&#45;&gt;Node5</title>
<path fill="none" stroke="midnightblue" d="M172,-157.8C172,-148.91 172,-138.78 172,-131.75"/>
<polygon fill="midnightblue" stroke="midnightblue" points="168.5,-158.08 172,-168.08 175.5,-158.08 168.5,-158.08"/>
</g>
<!-- Node7 -->
<g id="node7" class="node">
<title>Node7</title>
<g id="a_node7"><a xlink:href="eposthread_8cpp.html" target="_top" xlink:title=" ">
<polygon fill="none" stroke="black" points="245.5,-112.5 245.5,-131.5 344.5,-131.5 344.5,-112.5 245.5,-112.5"/>
<text text-anchor="middle" x="295" y="-119.5" font-family="Helvetica,sans-Serif" font-size="10.00">src/eposthread.cpp</text>
</a>
</g>
</g>
<!-- Node1&#45;&gt;Node7 -->
<g id="edge7" class="edge">
<title>Node1&#45;&gt;Node7</title>
<path fill="none" stroke="midnightblue" d="M200.77,-164.37C223.81,-154.26 255.48,-140.35 275.6,-131.52"/>
<polygon fill="midnightblue" stroke="midnightblue" points="199.24,-161.22 191.49,-168.44 202.05,-167.63 199.24,-161.22"/>
</g>
<!-- Node3 -->
<g id="node3" class="node">
<title>Node3</title>
<g id="a_node3"><a xlink:href="main_8cpp.html" target="_top" xlink:title=" ">
<polygon fill="none" stroke="black" points="0,-0.5 0,-19.5 72,-19.5 72,-0.5 0,-0.5"/>
<text text-anchor="middle" x="36" y="-7.5" font-family="Helvetica,sans-Serif" font-size="10.00">src/main.cpp</text>
</a>
</g>
</g>
<!-- Node2&#45;&gt;Node3 -->
<g id="edge2" class="edge">
<title>Node2&#45;&gt;Node3</title>
<path fill="none" stroke="midnightblue" d="M73.02,-48.72C63.68,-39.2 52.25,-27.56 44.59,-19.75"/>
<polygon fill="midnightblue" stroke="midnightblue" points="70.75,-51.4 80.25,-56.08 75.74,-46.49 70.75,-51.4"/>
</g>
<!-- Node4 -->
<g id="node4" class="node">
<title>Node4</title>
<g id="a_node4"><a xlink:href="mainwindow_8cpp.html" target="_top" xlink:title=" ">
<polygon fill="none" stroke="black" points="90.5,-0.5 90.5,-19.5 195.5,-19.5 195.5,-0.5 90.5,-0.5"/>
<text text-anchor="middle" x="143" y="-7.5" font-family="Helvetica,sans-Serif" font-size="10.00">src/mainwindow.cpp</text>
</a>
</g>
</g>
<!-- Node2&#45;&gt;Node4 -->
<g id="edge3" class="edge">
<title>Node2&#45;&gt;Node4</title>
<path fill="none" stroke="midnightblue" d="M105,-49C114.57,-39.43 126.36,-27.64 134.25,-19.75"/>
<polygon fill="midnightblue" stroke="midnightblue" points="102.51,-46.54 97.92,-56.08 107.46,-51.49 102.51,-46.54"/>
</g>
<!-- Node5&#45;&gt;Node2 -->
<g id="edge5" class="edge">
<title>Node5&#45;&gt;Node2</title>
<path fill="none" stroke="midnightblue" d="M149.9,-106.62C134.74,-96.76 115.12,-83.99 102.3,-75.65"/>
<polygon fill="midnightblue" stroke="midnightblue" points="148.37,-109.8 158.66,-112.32 152.19,-103.94 148.37,-109.8"/>
</g>
<!-- Node6 -->
<g id="node6" class="node">
<title>Node6</title>
<g id="a_node6"><a xlink:href="motorthread_8cpp.html" target="_top" xlink:title=" ">
<polygon fill="none" stroke="black" points="163.5,-56.5 163.5,-75.5 266.5,-75.5 266.5,-56.5 163.5,-56.5"/>
<text text-anchor="middle" x="215" y="-63.5" font-family="Helvetica,sans-Serif" font-size="10.00">src/motorthread.cpp</text>
</a>
</g>
</g>
<!-- Node5&#45;&gt;Node6 -->
<g id="edge6" class="edge">
<title>Node5&#45;&gt;Node6</title>
<path fill="none" stroke="midnightblue" d="M185.42,-104.14C192.91,-94.74 201.94,-83.4 208.03,-75.75"/>
<polygon fill="midnightblue" stroke="midnightblue" points="182.59,-102.08 179.1,-112.08 188.07,-106.44 182.59,-102.08"/>
</g>
</g>
</svg>
