<?xml version="1.0" encoding="UTF-8" standalone="no"?>
<!DOCTYPE svg PUBLIC "-//W3C//DTD SVG 1.1//EN"
 "http://www.w3.org/Graphics/SVG/1.1/DTD/svg11.dtd">
<!-- Generated by graphviz version 2.50.0 (20220203.2022)
 -->
<!-- Title: src/footpedal.cpp Pages: 1 -->
<svg width="312pt" height="140pt"
 viewBox="0.00 0.00 311.50 140.00" xmlns="http://www.w3.org/2000/svg" xmlns:xlink="http://www.w3.org/1999/xlink">
<g id="graph0" class="graph" transform="scale(1 1) rotate(0) translate(4 136)">
<title>src/footpedal.cpp</title>
<!-- Node1 -->
<g id="node1" class="node">
<title>Node1</title>
<g id="a_node1"><a xlink:title=" ">
<polygon fill="#bfbfbf" stroke="black" points="138,-112.5 138,-131.5 229,-131.5 229,-112.5 138,-112.5"/>
<text text-anchor="middle" x="183.5" y="-119.5" font-family="Helvetica,sans-Serif" font-size="10.00">src/footpedal.cpp</text>
</a>
</g>
</g>
<!-- Node2 -->
<g id="node2" class="node">
<title>Node2</title>
<g id="a_node2"><a xlink:href="footpedal_8h.html" target="_top" xlink:title="Header file includes footpedal class for opening port and reading data from foot pedal; reads one ana...">
<polygon fill="none" stroke="black" points="57.5,-56.5 57.5,-75.5 155.5,-75.5 155.5,-56.5 57.5,-56.5"/>
<text text-anchor="middle" x="106.5" y="-63.5" font-family="Helvetica,sans-Serif" font-size="10.00">include/footpedal.h</text>
</a>
</g>
</g>
<!-- Node1&#45;&gt;Node2 -->
<g id="edge1" class="edge">
<title>Node1&#45;&gt;Node2</title>
<path fill="none" stroke="midnightblue" d="M171.13,-112.32C159.34,-104.06 141.37,-91.45 127.36,-81.63"/>
<polygon fill="midnightblue" stroke="midnightblue" points="129.04,-78.53 118.84,-75.65 125.02,-84.26 129.04,-78.53"/>
</g>
<!-- Node4 -->
<g id="node4" class="node">
<title>Node4</title>
<g id="a_node4"><a xlink:title=" ">
<polygon fill="none" stroke="#bfbfbf" points="0,-0.5 0,-19.5 59,-19.5 59,-0.5 0,-0.5"/>
<text text-anchor="middle" x="29.5" y="-7.5" font-family="Helvetica,sans-Serif" font-size="10.00">wiringPi.h</text>
</a>
</g>
</g>
<!-- Node1&#45;&gt;Node4 -->
<g id="edge8" class="edge">
<title>Node1&#45;&gt;Node4</title>
<path fill="none" stroke="midnightblue" d="M137.69,-116.56C108.45,-111.39 71.81,-100.2 48.5,-76 36.66,-63.71 32.14,-44.45 30.44,-30.08"/>
<polygon fill="midnightblue" stroke="midnightblue" points="33.91,-29.52 29.6,-19.84 26.93,-30.09 33.91,-29.52"/>
</g>
<!-- Node5 -->
<g id="node5" class="node">
<title>Node5</title>
<g id="a_node5"><a xlink:href="m__defines_8h.html" target="_top" xlink:title="Header file includes global definitions, including configuration values, pin mapping,...">
<polygon fill="none" stroke="black" points="149.5,-0.5 149.5,-19.5 217.5,-19.5 217.5,-0.5 149.5,-0.5"/>
<text text-anchor="middle" x="183.5" y="-7.5" font-family="Helvetica,sans-Serif" font-size="10.00">m_defines.h</text>
</a>
</g>
</g>
<!-- Node1&#45;&gt;Node5 -->
<g id="edge6" class="edge">
<title>Node1&#45;&gt;Node5</title>
<path fill="none" stroke="midnightblue" d="M183.5,-112.37C183.5,-94.62 183.5,-53.67 183.5,-29.6"/>
<polygon fill="midnightblue" stroke="midnightblue" points="187,-29.59 183.5,-19.59 180,-29.59 187,-29.59"/>
</g>
<!-- Node6 -->
<g id="node6" class="node">
<title>Node6</title>
<g id="a_node6"><a xlink:title=" ">
<polygon fill="none" stroke="#bfbfbf" points="236,-0.5 236,-19.5 279,-19.5 279,-0.5 236,-0.5"/>
<text text-anchor="middle" x="257.5" y="-7.5" font-family="Helvetica,sans-Serif" font-size="10.00">time.h</text>
</a>
</g>
</g>
<!-- Node1&#45;&gt;Node6 -->
<g id="edge9" class="edge">
<title>Node1&#45;&gt;Node6</title>
<path fill="none" stroke="midnightblue" d="M189.31,-112.37C201.52,-94.22 230.05,-51.8 246.07,-27.99"/>
<polygon fill="midnightblue" stroke="midnightblue" points="249.04,-29.84 251.72,-19.59 243.23,-25.94 249.04,-29.84"/>
</g>
<!-- Node7 -->
<g id="node7" class="node">
<title>Node7</title>
<g id="a_node7"><a xlink:title=" ">
<polygon fill="none" stroke="#bfbfbf" points="249.5,-56.5 249.5,-75.5 303.5,-75.5 303.5,-56.5 249.5,-56.5"/>
<text text-anchor="middle" x="276.5" y="-63.5" font-family="Helvetica,sans-Serif" font-size="10.00">iostream</text>
</a>
</g>
</g>
<!-- Node1&#45;&gt;Node7 -->
<g id="edge7" class="edge">
<title>Node1&#45;&gt;Node7</title>
<path fill="none" stroke="midnightblue" d="M198.44,-112.32C213.09,-103.82 235.63,-90.73 252.74,-80.8"/>
<polygon fill="midnightblue" stroke="midnightblue" points="254.7,-83.7 261.6,-75.65 251.19,-77.65 254.7,-83.7"/>
</g>
<!-- Node3 -->
<g id="node3" class="node">
<title>Node3</title>
<g id="a_node3"><a xlink:title=" ">
<polygon fill="none" stroke="#bfbfbf" points="77.5,-0.5 77.5,-19.5 131.5,-19.5 131.5,-0.5 77.5,-0.5"/>
<text text-anchor="middle" x="104.5" y="-7.5" font-family="Helvetica,sans-Serif" font-size="10.00">QThread</text>
</a>
</g>
</g>
<!-- Node2&#45;&gt;Node3 -->
<g id="edge2" class="edge">
<title>Node2&#45;&gt;Node3</title>
<path fill="none" stroke="midnightblue" d="M106.17,-56.08C105.91,-49.01 105.53,-38.86 105.2,-29.99"/>
<polygon fill="midnightblue" stroke="midnightblue" points="108.69,-29.61 104.82,-19.75 101.7,-29.87 108.69,-29.61"/>
</g>
<!-- Node2&#45;&gt;Node4 -->
<g id="edge3" class="edge">
<title>Node2&#45;&gt;Node4</title>
<path fill="none" stroke="midnightblue" d="M94.13,-56.32C82.34,-48.06 64.37,-35.45 50.36,-25.63"/>
<polygon fill="midnightblue" stroke="midnightblue" points="52.04,-22.53 41.84,-19.65 48.02,-28.26 52.04,-22.53"/>
</g>
<!-- Node2&#45;&gt;Node5 -->
<g id="edge4" class="edge">
<title>Node2&#45;&gt;Node5</title>
<path fill="none" stroke="midnightblue" d="M118.87,-56.32C130.66,-48.06 148.63,-35.45 162.64,-25.63"/>
<polygon fill="midnightblue" stroke="midnightblue" points="164.98,-28.26 171.16,-19.65 160.96,-22.53 164.98,-28.26"/>
</g>
<!-- Node2&#45;&gt;Node6 -->
<g id="edge5" class="edge">
<title>Node2&#45;&gt;Node6</title>
<path fill="none" stroke="midnightblue" d="M130.43,-56.44C156.31,-47.19 197.7,-32.39 226.16,-22.21"/>
<polygon fill="midnightblue" stroke="midnightblue" points="227.41,-25.48 235.65,-18.82 225.05,-18.89 227.41,-25.48"/>
</g>
</g>
</svg>
