<?xml version="1.0" encoding="UTF-8" standalone="no"?>
<!DOCTYPE svg PUBLIC "-//W3C//DTD SVG 1.1//EN"
 "http://www.w3.org/Graphics/SVG/1.1/DTD/svg11.dtd">
<!-- Generated by graphviz version 2.50.0 (20220203.2022)
 -->
<!-- Title: include/footpedal.h Pages: 1 -->
<svg width="369pt" height="252pt"
 viewBox="0.00 0.00 368.50 252.00" xmlns="http://www.w3.org/2000/svg" xmlns:xlink="http://www.w3.org/1999/xlink">
<g id="graph0" class="graph" transform="scale(1 1) rotate(0) translate(4 248)">
<title>include/footpedal.h</title>
<!-- Node1 -->
<g id="node1" class="node">
<title>Node1</title>
<g id="a_node1"><a xlink:title="Header file includes footpedal class for opening port and reading data from foot pedal; reads one ana...">
<polygon fill="#bfbfbf" stroke="black" points="192,-224.5 192,-243.5 290,-243.5 290,-224.5 192,-224.5"/>
<text text-anchor="middle" x="241" y="-231.5" font-family="Helvetica,sans-Serif" font-size="10.00">include/footpedal.h</text>
</a>
</g>
</g>
<!-- Node2 -->
<g id="node2" class="node">
<title>Node2</title>
<g id="a_node2"><a xlink:href="eposthread_8h.html" target="_top" xlink:title="Header file includes EposThread class, which implements time consuming processes related to EPOS cont...">
<polygon fill="none" stroke="black" points="97,-168.5 97,-187.5 203,-187.5 203,-168.5 97,-168.5"/>
<text text-anchor="middle" x="150" y="-175.5" font-family="Helvetica,sans-Serif" font-size="10.00">include/eposthread.h</text>
</a>
</g>
</g>
<!-- Node1&#45;&gt;Node2 -->
<g id="edge1" class="edge">
<title>Node1&#45;&gt;Node2</title>
<path fill="none" stroke="midnightblue" d="M217.71,-219.18C200.96,-209.24 178.9,-196.15 164.58,-187.65"/>
<polygon fill="midnightblue" stroke="midnightblue" points="215.99,-222.23 226.38,-224.32 219.57,-216.21 215.99,-222.23"/>
</g>
<!-- Node6 -->
<g id="node6" class="node">
<title>Node6</title>
<g id="a_node6"><a xlink:href="motorthread_8h.html" target="_top" xlink:title="Header file includes motorThread class blueprint which is encapsulation of main thread of debrider co...">
<polygon fill="none" stroke="black" points="197,-112.5 197,-131.5 307,-131.5 307,-112.5 197,-112.5"/>
<text text-anchor="middle" x="252" y="-119.5" font-family="Helvetica,sans-Serif" font-size="10.00">include/motorthread.h</text>
</a>
</g>
</g>
<!-- Node1&#45;&gt;Node6 -->
<g id="edge9" class="edge">
<title>Node1&#45;&gt;Node6</title>
<path fill="none" stroke="midnightblue" d="M242.87,-214.35C245.27,-190.25 249.37,-149.31 251.14,-131.59"/>
<polygon fill="midnightblue" stroke="midnightblue" points="239.38,-214.07 241.86,-224.37 246.34,-214.77 239.38,-214.07"/>
</g>
<!-- Node9 -->
<g id="node9" class="node">
<title>Node9</title>
<g id="a_node9"><a xlink:href="footpedal_8cpp.html" target="_top" xlink:title=" ">
<polygon fill="none" stroke="black" points="269.5,-168.5 269.5,-187.5 360.5,-187.5 360.5,-168.5 269.5,-168.5"/>
<text text-anchor="middle" x="315" y="-175.5" font-family="Helvetica,sans-Serif" font-size="10.00">src/footpedal.cpp</text>
</a>
</g>
</g>
<!-- Node1&#45;&gt;Node9 -->
<g id="edge10" class="edge">
<title>Node1&#45;&gt;Node9</title>
<path fill="none" stroke="midnightblue" d="M261.03,-218.38C274.41,-208.62 291.56,-196.11 302.89,-187.83"/>
<polygon fill="midnightblue" stroke="midnightblue" points="258.9,-215.6 252.89,-224.32 263.03,-221.26 258.9,-215.6"/>
</g>
<!-- Node3 -->
<g id="node3" class="node">
<title>Node3</title>
<g id="a_node3"><a xlink:href="mainwindow_8h.html" target="_top" xlink:title=" ">
<polygon fill="none" stroke="black" points="33,-56.5 33,-75.5 145,-75.5 145,-56.5 33,-56.5"/>
<text text-anchor="middle" x="89" y="-63.5" font-family="Helvetica,sans-Serif" font-size="10.00">include/mainwindow.h</text>
</a>
</g>
</g>
<!-- Node2&#45;&gt;Node3 -->
<g id="edge2" class="edge">
<title>Node2&#45;&gt;Node3</title>
<path fill="none" stroke="midnightblue" d="M110.31,-164.58C94.91,-157.59 78.86,-147.15 70,-132 59.2,-113.53 73.36,-88.47 82.45,-75.52"/>
<polygon fill="midnightblue" stroke="midnightblue" points="109.17,-167.89 119.75,-168.49 111.85,-161.43 109.17,-167.89"/>
</g>
<!-- Node2&#45;&gt;Node6 -->
<g id="edge5" class="edge">
<title>Node2&#45;&gt;Node6</title>
<path fill="none" stroke="midnightblue" d="M175.33,-163.59C194.19,-153.61 219.38,-140.27 235.65,-131.65"/>
<polygon fill="midnightblue" stroke="midnightblue" points="173.59,-160.55 166.39,-168.32 176.86,-166.74 173.59,-160.55"/>
</g>
<!-- Node8 -->
<g id="node8" class="node">
<title>Node8</title>
<g id="a_node8"><a xlink:href="eposthread_8cpp.html" target="_top" xlink:title=" ">
<polygon fill="none" stroke="black" points="79.5,-112.5 79.5,-131.5 178.5,-131.5 178.5,-112.5 79.5,-112.5"/>
<text text-anchor="middle" x="129" y="-119.5" font-family="Helvetica,sans-Serif" font-size="10.00">src/eposthread.cpp</text>
</a>
</g>
</g>
<!-- Node2&#45;&gt;Node8 -->
<g id="edge8" class="edge">
<title>Node2&#45;&gt;Node8</title>
<path fill="none" stroke="midnightblue" d="M142.88,-158.69C139.34,-149.59 135.23,-139.01 132.4,-131.75"/>
<polygon fill="midnightblue" stroke="midnightblue" points="139.65,-160.03 146.53,-168.08 146.17,-157.49 139.65,-160.03"/>
</g>
<!-- Node4 -->
<g id="node4" class="node">
<title>Node4</title>
<g id="a_node4"><a xlink:href="main_8cpp.html" target="_top" xlink:title=" ">
<polygon fill="none" stroke="black" points="0,-0.5 0,-19.5 72,-19.5 72,-0.5 0,-0.5"/>
<text text-anchor="middle" x="36" y="-7.5" font-family="Helvetica,sans-Serif" font-size="10.00">src/main.cpp</text>
</a>
</g>
</g>
<!-- Node3&#45;&gt;Node4 -->
<g id="edge3" class="edge">
<title>Node3&#45;&gt;Node4</title>
<path fill="none" stroke="midnightblue" d="M73.02,-48.72C63.68,-39.2 52.25,-27.56 44.59,-19.75"/>
<polygon fill="midnightblue" stroke="midnightblue" points="70.75,-51.4 80.25,-56.08 75.74,-46.49 70.75,-51.4"/>
</g>
<!-- Node5 -->
<g id="node5" class="node">
<title>Node5</title>
<g id="a_node5"><a xlink:href="mainwindow_8cpp.html" target="_top" xlink:title=" ">
<polygon fill="none" stroke="black" points="90.5,-0.5 90.5,-19.5 195.5,-19.5 195.5,-0.5 90.5,-0.5"/>
<text text-anchor="middle" x="143" y="-7.5" font-family="Helvetica,sans-Serif" font-size="10.00">src/mainwindow.cpp</text>
</a>
</g>
</g>
<!-- Node3&#45;&gt;Node5 -->
<g id="edge4" class="edge">
<title>Node3&#45;&gt;Node5</title>
<path fill="none" stroke="midnightblue" d="M105,-49C114.57,-39.43 126.36,-27.64 134.25,-19.75"/>
<polygon fill="midnightblue" stroke="midnightblue" points="102.51,-46.54 97.92,-56.08 107.46,-51.49 102.51,-46.54"/>
</g>
<!-- Node6&#45;&gt;Node3 -->
<g id="edge6" class="edge">
<title>Node6&#45;&gt;Node3</title>
<path fill="none" stroke="midnightblue" d="M216.3,-109.17C185.6,-99 142.08,-84.59 114.71,-75.52"/>
<polygon fill="midnightblue" stroke="midnightblue" points="215.58,-112.62 226.17,-112.44 217.78,-105.98 215.58,-112.62"/>
</g>
<!-- Node7 -->
<g id="node7" class="node">
<title>Node7</title>
<g id="a_node7"><a xlink:href="motorthread_8cpp.html" target="_top" xlink:title=" ">
<polygon fill="none" stroke="black" points="200.5,-56.5 200.5,-75.5 303.5,-75.5 303.5,-56.5 200.5,-56.5"/>
<text text-anchor="middle" x="252" y="-63.5" font-family="Helvetica,sans-Serif" font-size="10.00">src/motorthread.cpp</text>
</a>
</g>
</g>
<!-- Node6&#45;&gt;Node7 -->
<g id="edge7" class="edge">
<title>Node6&#45;&gt;Node7</title>
<path fill="none" stroke="midnightblue" d="M252,-101.8C252,-92.91 252,-82.78 252,-75.75"/>
<polygon fill="midnightblue" stroke="midnightblue" points="248.5,-102.08 252,-112.08 255.5,-102.08 248.5,-102.08"/>
</g>
</g>
</svg>
