<?xml version="1.0" encoding="UTF-8" standalone="no"?>
<!DOCTYPE svg PUBLIC "-//W3C//DTD SVG 1.1//EN"
 "http://www.w3.org/Graphics/SVG/1.1/DTD/svg11.dtd">
<!-- Generated by graphviz version 3.0.0 (20220413.0106)
 -->
<!-- Title: src/footpedal.cpp Pages: 1 -->
<svg width="446pt" height="140pt"
 viewBox="0.00 0.00 445.50 140.00" xmlns="http://www.w3.org/2000/svg" xmlns:xlink="http://www.w3.org/1999/xlink">
<g id="graph0" class="graph" transform="scale(1 1) rotate(0) translate(4 136)">
<title>src/footpedal.cpp</title>
<!-- Node1 -->
<g id="node1" class="node">
<title>Node1</title>
<g id="a_node1"><a xlink:title=" ">
<polygon fill="#bfbfbf" stroke="black" points="211,-112.5 211,-131.5 302,-131.5 302,-112.5 211,-112.5"/>
<text text-anchor="middle" x="256.5" y="-119.5" font-family="Helvetica,sans-Serif" font-size="10.00">src/footpedal.cpp</text>
</a>
</g>
</g>
<!-- Node2 -->
<g id="node2" class="node">
<title>Node2</title>
<g id="a_node2"><a xlink:href="footpedal_8h.html" target="_top" xlink:title="Header file includes footpedal class for opening port and reading data from foot pedal; reads one ana...">
<polygon fill="none" stroke="black" points="103.5,-56.5 103.5,-75.5 201.5,-75.5 201.5,-56.5 103.5,-56.5"/>
<text text-anchor="middle" x="152.5" y="-63.5" font-family="Helvetica,sans-Serif" font-size="10.00">include/footpedal.h</text>
</a>
</g>
</g>
<!-- Node1&#45;&gt;Node2 -->
<g id="edge1" class="edge">
<title>Node1&#45;&gt;Node2</title>
<path fill="none" stroke="midnightblue" d="M239.79,-112.32C223.19,-103.7 197.5,-90.36 178.28,-80.39"/>
<polygon fill="midnightblue" stroke="midnightblue" points="179.66,-77.16 169.17,-75.65 176.43,-83.37 179.66,-77.16"/>
</g>
<!-- Node4 -->
<g id="node4" class="node">
<title>Node4</title>
<g id="a_node4"><a xlink:title=" ">
<polygon fill="none" stroke="#bfbfbf" points="0,-0.5 0,-19.5 59,-19.5 59,-0.5 0,-0.5"/>
<text text-anchor="middle" x="29.5" y="-7.5" font-family="Helvetica,sans-Serif" font-size="10.00">wiringPi.h</text>
</a>
</g>
</g>
<!-- Node1&#45;&gt;Node4 -->
<g id="edge8" class="edge">
<title>Node1&#45;&gt;Node4</title>
<path fill="none" stroke="midnightblue" d="M210.75,-114.73C176.88,-108.61 130.55,-97.04 94.5,-76 73.27,-63.61 54.05,-42.6 42.12,-27.83"/>
<polygon fill="midnightblue" stroke="midnightblue" points="44.58,-25.3 35.67,-19.57 39.06,-29.6 44.58,-25.3"/>
</g>
<!-- Node5 -->
<g id="node5" class="node">
<title>Node5</title>
<g id="a_node5"><a xlink:href="m__defines_8h.html" target="_top" xlink:title="Header file includes global definitions, including configuration values, pin mapping,...">
<polygon fill="none" stroke="black" points="211.5,-0.5 211.5,-19.5 279.5,-19.5 279.5,-0.5 211.5,-0.5"/>
<text text-anchor="middle" x="245.5" y="-7.5" font-family="Helvetica,sans-Serif" font-size="10.00">m_defines.h</text>
</a>
</g>
</g>
<!-- Node1&#45;&gt;Node5 -->
<g id="edge6" class="edge">
<title>Node1&#45;&gt;Node5</title>
<path fill="none" stroke="midnightblue" d="M254.63,-112.42C252.75,-103.4 249.92,-88.78 248.5,-76 246.78,-60.54 246.04,-42.91 245.73,-29.92"/>
<polygon fill="midnightblue" stroke="midnightblue" points="249.22,-29.8 245.55,-19.86 242.23,-29.92 249.22,-29.8"/>
</g>
<!-- Node7 -->
<g id="node7" class="node">
<title>Node7</title>
<g id="a_node7"><a xlink:title=" ">
<polygon fill="none" stroke="#bfbfbf" points="257.5,-56.5 257.5,-75.5 311.5,-75.5 311.5,-56.5 257.5,-56.5"/>
<text text-anchor="middle" x="284.5" y="-63.5" font-family="Helvetica,sans-Serif" font-size="10.00">iostream</text>
</a>
</g>
</g>
<!-- Node1&#45;&gt;Node7 -->
<g id="edge7" class="edge">
<title>Node1&#45;&gt;Node7</title>
<path fill="none" stroke="midnightblue" d="M261.12,-112.08C264.96,-104.69 270.52,-93.95 275.26,-84.81"/>
<polygon fill="midnightblue" stroke="midnightblue" points="278.47,-86.24 279.96,-75.75 272.25,-83.02 278.47,-86.24"/>
</g>
<!-- Node8 -->
<g id="node8" class="node">
<title>Node8</title>
<g id="a_node8"><a xlink:title=" ">
<polygon fill="none" stroke="#bfbfbf" points="329.5,-56.5 329.5,-75.5 373.5,-75.5 373.5,-56.5 329.5,-56.5"/>
<text text-anchor="middle" x="351.5" y="-63.5" font-family="Helvetica,sans-Serif" font-size="10.00">thread</text>
</a>
</g>
</g>
<!-- Node1&#45;&gt;Node8 -->
<g id="edge9" class="edge">
<title>Node1&#45;&gt;Node8</title>
<path fill="none" stroke="midnightblue" d="M271.76,-112.32C286.72,-103.82 309.75,-90.73 327.23,-80.8"/>
<polygon fill="midnightblue" stroke="midnightblue" points="329.31,-83.64 336.27,-75.65 325.85,-77.55 329.31,-83.64"/>
</g>
<!-- Node9 -->
<g id="node9" class="node">
<title>Node9</title>
<g id="a_node9"><a xlink:title=" ">
<polygon fill="none" stroke="#bfbfbf" points="391.5,-56.5 391.5,-75.5 437.5,-75.5 437.5,-56.5 391.5,-56.5"/>
<text text-anchor="middle" x="414.5" y="-63.5" font-family="Helvetica,sans-Serif" font-size="10.00">chrono</text>
</a>
</g>
</g>
<!-- Node1&#45;&gt;Node9 -->
<g id="edge10" class="edge">
<title>Node1&#45;&gt;Node9</title>
<path fill="none" stroke="midnightblue" d="M281.54,-112.44C308.66,-103.17 352.05,-88.34 381.84,-78.16"/>
<polygon fill="midnightblue" stroke="midnightblue" points="383.05,-81.45 391.38,-74.9 380.79,-74.82 383.05,-81.45"/>
</g>
<!-- Node3 -->
<g id="node3" class="node">
<title>Node3</title>
<g id="a_node3"><a xlink:title=" ">
<polygon fill="none" stroke="#bfbfbf" points="77.5,-0.5 77.5,-19.5 131.5,-19.5 131.5,-0.5 77.5,-0.5"/>
<text text-anchor="middle" x="104.5" y="-7.5" font-family="Helvetica,sans-Serif" font-size="10.00">QThread</text>
</a>
</g>
</g>
<!-- Node2&#45;&gt;Node3 -->
<g id="edge2" class="edge">
<title>Node2&#45;&gt;Node3</title>
<path fill="none" stroke="midnightblue" d="M144.57,-56.08C137.65,-48.3 127.43,-36.8 119.05,-27.37"/>
<polygon fill="midnightblue" stroke="midnightblue" points="121.54,-24.9 112.28,-19.75 116.31,-29.55 121.54,-24.9"/>
</g>
<!-- Node2&#45;&gt;Node4 -->
<g id="edge3" class="edge">
<title>Node2&#45;&gt;Node4</title>
<path fill="none" stroke="midnightblue" d="M133.01,-56.44C112.86,-47.6 81.18,-33.69 58.17,-23.59"/>
<polygon fill="midnightblue" stroke="midnightblue" points="59.46,-20.33 48.9,-19.52 56.65,-26.74 59.46,-20.33"/>
</g>
<!-- Node2&#45;&gt;Node5 -->
<g id="edge4" class="edge">
<title>Node2&#45;&gt;Node5</title>
<path fill="none" stroke="midnightblue" d="M167.44,-56.32C182.09,-47.82 204.63,-34.73 221.74,-24.8"/>
<polygon fill="midnightblue" stroke="midnightblue" points="223.7,-27.7 230.6,-19.65 220.19,-21.65 223.7,-27.7"/>
</g>
<!-- Node6 -->
<g id="node6" class="node">
<title>Node6</title>
<g id="a_node6"><a xlink:title=" ">
<polygon fill="none" stroke="#bfbfbf" points="150,-0.5 150,-19.5 193,-19.5 193,-0.5 150,-0.5"/>
<text text-anchor="middle" x="171.5" y="-7.5" font-family="Helvetica,sans-Serif" font-size="10.00">time.h</text>
</a>
</g>
</g>
<!-- Node2&#45;&gt;Node6 -->
<g id="edge5" class="edge">
<title>Node2&#45;&gt;Node6</title>
<path fill="none" stroke="midnightblue" d="M155.64,-56.08C158.18,-48.85 161.86,-38.41 165.03,-29.4"/>
<polygon fill="midnightblue" stroke="midnightblue" points="168.4,-30.35 168.42,-19.75 161.8,-28.02 168.4,-30.35"/>
</g>
</g>
</svg>
