<?xml version="1.0" encoding="UTF-8" standalone="no"?>
<!DOCTYPE svg PUBLIC "-//W3C//DTD SVG 1.1//EN"
 "http://www.w3.org/Graphics/SVG/1.1/DTD/svg11.dtd">
<!-- Generated by graphviz version 2.50.0 (20220203.2022)
 -->
<!-- Title: Graphical Class Hierarchy Pages: 1 -->
<svg width="169pt" height="104pt"
 viewBox="0.00 0.00 169.00 104.00" xmlns="http://www.w3.org/2000/svg" xmlns:xlink="http://www.w3.org/1999/xlink">
<g id="graph0" class="graph" transform="scale(1 1) rotate(0) translate(4 100)">
<title>Graphical Class Hierarchy</title>
<!-- Node0 -->
<g id="node1" class="node">
<title>Node0</title>
<g id="a_node1"><a xlink:title=" ">
<polygon fill="none" stroke="#bfbfbf" points="0,-38.5 0,-57.5 54,-57.5 54,-38.5 0,-38.5"/>
<text text-anchor="middle" x="27" y="-45.5" font-family="Helvetica,sans-Serif" font-size="10.00">QThread</text>
</a>
</g>
</g>
<!-- Node1 -->
<g id="node2" class="node">
<title>Node1</title>
<g id="a_node2"><a xlink:href="classEposThread.html" target="_top" xlink:title=" ">
<polygon fill="none" stroke="black" points="91.5,-76.5 91.5,-95.5 159.5,-95.5 159.5,-76.5 91.5,-76.5"/>
<text text-anchor="middle" x="125.5" y="-83.5" font-family="Helvetica,sans-Serif" font-size="10.00">EposThread</text>
</a>
</g>
</g>
<!-- Node0&#45;&gt;Node1 -->
<g id="edge1" class="edge">
<title>Node0&#45;&gt;Node1</title>
<path fill="none" stroke="midnightblue" d="M61.68,-61.26C74.35,-66.25 88.5,-71.82 100.16,-76.41"/>
<polygon fill="midnightblue" stroke="midnightblue" points="62.94,-58 52.35,-57.59 60.37,-64.51 62.94,-58"/>
</g>
<!-- Node2 -->
<g id="node3" class="node">
<title>Node2</title>
<g id="a_node3"><a xlink:href="classFootPedal.html" target="_top" xlink:title=" ">
<polygon fill="none" stroke="black" points="95,-38.5 95,-57.5 156,-57.5 156,-38.5 95,-38.5"/>
<text text-anchor="middle" x="125.5" y="-45.5" font-family="Helvetica,sans-Serif" font-size="10.00">FootPedal</text>
</a>
</g>
</g>
<!-- Node0&#45;&gt;Node2 -->
<g id="edge2" class="edge">
<title>Node0&#45;&gt;Node2</title>
<path fill="none" stroke="midnightblue" d="M64.3,-48C74.42,-48 85.28,-48 94.96,-48"/>
<polygon fill="midnightblue" stroke="midnightblue" points="64.11,-44.5 54.11,-48 64.11,-51.5 64.11,-44.5"/>
</g>
<!-- Node3 -->
<g id="node4" class="node">
<title>Node3</title>
<g id="a_node4"><a xlink:href="classMotorThread.html" target="_top" xlink:title=" ">
<polygon fill="none" stroke="black" points="90,-0.5 90,-19.5 161,-19.5 161,-0.5 90,-0.5"/>
<text text-anchor="middle" x="125.5" y="-7.5" font-family="Helvetica,sans-Serif" font-size="10.00">MotorThread</text>
</a>
</g>
</g>
<!-- Node0&#45;&gt;Node3 -->
<g id="edge3" class="edge">
<title>Node0&#45;&gt;Node3</title>
<path fill="none" stroke="midnightblue" d="M61.68,-34.74C74.35,-29.75 88.5,-24.18 100.16,-19.59"/>
<polygon fill="midnightblue" stroke="midnightblue" points="60.37,-31.49 52.35,-38.41 62.94,-38 60.37,-31.49"/>
</g>
</g>
</svg>
