<?xml version="1.0" encoding="UTF-8" standalone="no"?>
<!DOCTYPE svg PUBLIC "-//W3C//DTD SVG 1.1//EN"
 "http://www.w3.org/Graphics/SVG/1.1/DTD/svg11.dtd">
<!-- Generated by graphviz version 2.50.0 (20220203.2022)
 -->
<!-- Title: src/initialization_window.cpp Pages: 1 -->
<svg width="373pt" height="162pt"
 viewBox="0.00 0.00 372.50 162.00" xmlns="http://www.w3.org/2000/svg" xmlns:xlink="http://www.w3.org/1999/xlink">
<g id="graph0" class="graph" transform="scale(1 1) rotate(0) translate(4 158)">
<title>src/initialization_window.cpp</title>
<!-- Node1 -->
<g id="node1" class="node">
<title>Node1</title>
<g id="a_node1"><a xlink:title=" ">
<polygon fill="#bfbfbf" stroke="black" points="140,-123.5 140,-153.5 223,-153.5 223,-123.5 140,-123.5"/>
<text text-anchor="start" x="148" y="-141.5" font-family="Helvetica,sans-Serif" font-size="10.00">src/initialization</text>
<text text-anchor="middle" x="181.5" y="-130.5" font-family="Helvetica,sans-Serif" font-size="10.00">_window.cpp</text>
</a>
</g>
</g>
<!-- Node2 -->
<g id="node2" class="node">
<title>Node2</title>
<g id="a_node2"><a xlink:href="initialization__window_8h.html" target="_top" xlink:title="Header file includes initialization window class, checks if system is ready for running,...">
<polygon fill="none" stroke="black" points="0,-56.5 0,-86.5 101,-86.5 101,-56.5 0,-56.5"/>
<text text-anchor="start" x="8" y="-74.5" font-family="Helvetica,sans-Serif" font-size="10.00">include/initialization</text>
<text text-anchor="middle" x="50.5" y="-63.5" font-family="Helvetica,sans-Serif" font-size="10.00">_window.h</text>
</a>
</g>
</g>
<!-- Node1&#45;&gt;Node2 -->
<g id="edge1" class="edge">
<title>Node1&#45;&gt;Node2</title>
<path fill="none" stroke="midnightblue" d="M153.07,-123.4C134.02,-113.94 108.72,-101.39 88.02,-91.12"/>
<polygon fill="midnightblue" stroke="midnightblue" points="89.38,-87.89 78.87,-86.58 86.27,-94.16 89.38,-87.89"/>
</g>
<!-- Node4 -->
<g id="node4" class="node">
<title>Node4</title>
<g id="a_node4"><a xlink:title=" ">
<polygon fill="none" stroke="#bfbfbf" points="119,-62 119,-81 244,-81 244,-62 119,-62"/>
<text text-anchor="middle" x="181.5" y="-69" font-family="Helvetica,sans-Serif" font-size="10.00">ui_initialization_window.h</text>
</a>
</g>
</g>
<!-- Node1&#45;&gt;Node4 -->
<g id="edge3" class="edge">
<title>Node1&#45;&gt;Node4</title>
<path fill="none" stroke="midnightblue" d="M181.5,-123.4C181.5,-114.06 181.5,-101.71 181.5,-91.52"/>
<polygon fill="midnightblue" stroke="midnightblue" points="185,-91.19 181.5,-81.19 178,-91.19 185,-91.19"/>
</g>
<!-- Node5 -->
<g id="node5" class="node">
<title>Node5</title>
<g id="a_node5"><a xlink:href="m__defines_8h.html" target="_top" xlink:title="Header file includes global definitions, including configuration values, pin mapping,...">
<polygon fill="none" stroke="black" points="262.5,-62 262.5,-81 364.5,-81 364.5,-62 262.5,-62"/>
<text text-anchor="middle" x="313.5" y="-69" font-family="Helvetica,sans-Serif" font-size="10.00">include/m_defines.h</text>
</a>
</g>
</g>
<!-- Node1&#45;&gt;Node5 -->
<g id="edge4" class="edge">
<title>Node1&#45;&gt;Node5</title>
<path fill="none" stroke="midnightblue" d="M210.14,-123.4C233,-112.14 264.76,-96.5 287.02,-85.54"/>
<polygon fill="midnightblue" stroke="midnightblue" points="288.8,-88.56 296.22,-81.01 285.71,-82.28 288.8,-88.56"/>
</g>
<!-- Node3 -->
<g id="node3" class="node">
<title>Node3</title>
<g id="a_node3"><a xlink:title=" ">
<polygon fill="none" stroke="#bfbfbf" points="10.5,-0.5 10.5,-19.5 90.5,-19.5 90.5,-0.5 10.5,-0.5"/>
<text text-anchor="middle" x="50.5" y="-7.5" font-family="Helvetica,sans-Serif" font-size="10.00">QMainWindow</text>
</a>
</g>
</g>
<!-- Node2&#45;&gt;Node3 -->
<g id="edge2" class="edge">
<title>Node2&#45;&gt;Node3</title>
<path fill="none" stroke="midnightblue" d="M50.5,-56.4C50.5,-48.47 50.5,-38.46 50.5,-29.86"/>
<polygon fill="midnightblue" stroke="midnightblue" points="54,-29.66 50.5,-19.66 47,-29.66 54,-29.66"/>
</g>
</g>
</svg>
