<?xml version="1.0" encoding="UTF-8" standalone="no"?>
<!DOCTYPE svg PUBLIC "-//W3C//DTD SVG 1.1//EN"
 "http://www.w3.org/Graphics/SVG/1.1/DTD/svg11.dtd">
<!-- Generated by graphviz version 2.50.0 (20220203.2022)
 -->
<!-- Title: include/m_defines.h Pages: 1 -->
<svg width="769pt" height="319pt"
 viewBox="0.00 0.00 768.81 319.00" xmlns="http://www.w3.org/2000/svg" xmlns:xlink="http://www.w3.org/1999/xlink">
<g id="graph0" class="graph" transform="scale(1 1) rotate(0) translate(4 315)">
<title>include/m_defines.h</title>
<!-- Node1 -->
<g id="node1" class="node">
<title>Node1</title>
<g id="a_node1"><a xlink:title="Header file includes global definitions, including configuration values, pin mapping,...">
<polygon fill="#bfbfbf" stroke="black" points="423.31,-291.5 423.31,-310.5 525.31,-310.5 525.31,-291.5 423.31,-291.5"/>
<text text-anchor="middle" x="474.31" y="-298.5" font-family="Helvetica,sans-Serif" font-size="10.00">include/m_defines.h</text>
</a>
</g>
</g>
<!-- Node2 -->
<g id="node2" class="node">
<title>Node2</title>
<g id="a_node2"><a xlink:href="emergency__window_8h.html" target="_top" xlink:title="Header file includes emergency window class which includes emergency messages, in case of any error o...">
<polygon fill="none" stroke="black" points="109.81,-230 109.81,-249 252.81,-249 252.81,-230 109.81,-230"/>
<text text-anchor="middle" x="181.31" y="-237" font-family="Helvetica,sans-Serif" font-size="10.00">include/emergency_window.h</text>
</a>
</g>
</g>
<!-- Node1&#45;&gt;Node2 -->
<g id="edge1" class="edge">
<title>Node1&#45;&gt;Node2</title>
<path fill="none" stroke="midnightblue" d="M422.47,-289.47C365.69,-277.94 275.71,-259.67 223.21,-249.01"/>
<polygon fill="midnightblue" stroke="midnightblue" points="421.83,-292.91 432.33,-291.48 423.22,-286.05 421.83,-292.91"/>
</g>
<!-- Node3 -->
<g id="node3" class="node">
<title>Node3</title>
<g id="a_node3"><a xlink:href="mainwindow_8h.html" target="_top" xlink:title=" ">
<polygon fill="none" stroke="black" points="163.31,-56.5 163.31,-75.5 275.31,-75.5 275.31,-56.5 163.31,-56.5"/>
<text text-anchor="middle" x="219.31" y="-63.5" font-family="Helvetica,sans-Serif" font-size="10.00">include/mainwindow.h</text>
</a>
</g>
</g>
<!-- Node1&#45;&gt;Node3 -->
<g id="edge21" class="edge">
<title>Node1&#45;&gt;Node3</title>
<path fill="none" stroke="midnightblue" d="M412.87,-296.3C321.83,-290.2 155.87,-276.52 100.31,-255 52.46,-236.47 29.8,-233.61 6.31,-188 -28.47,-120.52 88.81,-88.31 163,-75"/>
<polygon fill="midnightblue" stroke="midnightblue" points="412.85,-299.81 423.05,-296.98 413.31,-292.82 412.85,-299.81"/>
</g>
<!-- Node7 -->
<g id="node7" class="node">
<title>Node7</title>
<g id="a_node7"><a xlink:href="epos4__can_8h.html" target="_top" xlink:title=" ">
<polygon fill="none" stroke="black" points="320.81,-230 320.81,-249 425.81,-249 425.81,-230 320.81,-230"/>
<text text-anchor="middle" x="373.31" y="-237" font-family="Helvetica,sans-Serif" font-size="10.00">include/epos4_can.h</text>
</a>
</g>
</g>
<!-- Node1&#45;&gt;Node7 -->
<g id="edge6" class="edge">
<title>Node1&#45;&gt;Node7</title>
<path fill="none" stroke="midnightblue" d="M450.95,-286.24C431.44,-274.75 404.24,-258.72 387.75,-249.01"/>
<polygon fill="midnightblue" stroke="midnightblue" points="449.44,-289.41 459.83,-291.48 452.99,-283.38 449.44,-289.41"/>
</g>
<!-- Node8 -->
<g id="node8" class="node">
<title>Node8</title>
<g id="a_node8"><a xlink:href="eposthread_8h.html" target="_top" xlink:title="Header file includes EposThread class, which implements time consuming processes related to EPOS cont...">
<polygon fill="none" stroke="black" points="401.31,-168.5 401.31,-187.5 507.31,-187.5 507.31,-168.5 401.31,-168.5"/>
<text text-anchor="middle" x="454.31" y="-175.5" font-family="Helvetica,sans-Serif" font-size="10.00">include/eposthread.h</text>
</a>
</g>
</g>
<!-- Node1&#45;&gt;Node8 -->
<g id="edge16" class="edge">
<title>Node1&#45;&gt;Node8</title>
<path fill="none" stroke="midnightblue" d="M471.22,-281.35C466.83,-254.77 458.95,-207.08 455.73,-187.62"/>
<polygon fill="midnightblue" stroke="midnightblue" points="467.78,-282 472.87,-291.3 474.69,-280.86 467.78,-282"/>
</g>
<!-- Node9 -->
<g id="node9" class="node">
<title>Node9</title>
<g id="a_node9"><a xlink:href="motorthread_8h.html" target="_top" xlink:title="Header file includes motorThread class blueprint which is encapsulation of main thread of debrider co...">
<polygon fill="none" stroke="black" points="460.31,-112.5 460.31,-131.5 570.31,-131.5 570.31,-112.5 460.31,-112.5"/>
<text text-anchor="middle" x="515.31" y="-119.5" font-family="Helvetica,sans-Serif" font-size="10.00">include/motorthread.h</text>
</a>
</g>
</g>
<!-- Node1&#45;&gt;Node9 -->
<g id="edge22" class="edge">
<title>Node1&#45;&gt;Node9</title>
<path fill="none" stroke="midnightblue" d="M483.34,-282.06C493.69,-260.41 510.03,-222.59 516.31,-188 517.89,-179.25 516.4,-176.89 516.31,-168 516.16,-155.34 515.8,-140.68 515.55,-131.63"/>
<polygon fill="midnightblue" stroke="midnightblue" points="480.06,-280.79 478.81,-291.31 486.35,-283.87 480.06,-280.79"/>
</g>
<!-- Node13 -->
<g id="node13" class="node">
<title>Node13</title>
<g id="a_node13"><a xlink:href="footpedal_8h.html" target="_top" xlink:title="Header file includes footpedal class for opening port and reading data from foot pedal; reads one ana...">
<polygon fill="none" stroke="black" points="523.31,-230 523.31,-249 621.31,-249 621.31,-230 523.31,-230"/>
<text text-anchor="middle" x="572.31" y="-237" font-family="Helvetica,sans-Serif" font-size="10.00">include/footpedal.h</text>
</a>
</g>
</g>
<!-- Node1&#45;&gt;Node13 -->
<g id="edge17" class="edge">
<title>Node1&#45;&gt;Node13</title>
<path fill="none" stroke="midnightblue" d="M496.96,-286.24C515.89,-274.75 542.29,-258.72 558.29,-249.01"/>
<polygon fill="midnightblue" stroke="midnightblue" points="495.08,-283.29 488.35,-291.48 498.71,-289.28 495.08,-283.29"/>
</g>
<!-- Node14 -->
<g id="node14" class="node">
<title>Node14</title>
<g id="a_node14"><a xlink:href="footpedal_8cpp.html" target="_top" xlink:title=" ">
<polygon fill="none" stroke="black" points="602.81,-168.5 602.81,-187.5 693.81,-187.5 693.81,-168.5 602.81,-168.5"/>
<text text-anchor="middle" x="648.31" y="-175.5" font-family="Helvetica,sans-Serif" font-size="10.00">src/footpedal.cpp</text>
</a>
</g>
</g>
<!-- Node1&#45;&gt;Node14 -->
<g id="edge23" class="edge">
<title>Node1&#45;&gt;Node14</title>
<path fill="none" stroke="midnightblue" d="M535.62,-296.8C567.98,-291.91 605.92,-280.6 630.31,-255 648.17,-236.25 649.4,-203.17 648.87,-187.58"/>
<polygon fill="midnightblue" stroke="midnightblue" points="534.79,-293.38 525.34,-298.17 535.71,-300.32 534.79,-293.38"/>
</g>
<!-- Node15 -->
<g id="node15" class="node">
<title>Node15</title>
<g id="a_node15"><a xlink:href="initialization__window_8cpp.html" target="_top" xlink:title=" ">
<polygon fill="none" stroke="black" points="677.81,-224.5 677.81,-254.5 760.81,-254.5 760.81,-224.5 677.81,-224.5"/>
<text text-anchor="start" x="685.81" y="-242.5" font-family="Helvetica,sans-Serif" font-size="10.00">src/initialization</text>
<text text-anchor="middle" x="719.31" y="-231.5" font-family="Helvetica,sans-Serif" font-size="10.00">_window.cpp</text>
</a>
</g>
</g>
<!-- Node1&#45;&gt;Node15 -->
<g id="edge24" class="edge">
<title>Node1&#45;&gt;Node15</title>
<path fill="none" stroke="midnightblue" d="M521.13,-289.12C559.41,-280.16 614.93,-267.02 663.31,-255 667.98,-253.84 672.88,-252.6 677.74,-251.36"/>
<polygon fill="midnightblue" stroke="midnightblue" points="520.24,-285.73 511.3,-291.42 521.83,-292.55 520.24,-285.73"/>
</g>
<!-- Node2&#45;&gt;Node3 -->
<g id="edge2" class="edge">
<title>Node2&#45;&gt;Node3</title>
<path fill="none" stroke="midnightblue" d="M184.19,-219.66C188.15,-194.81 195.87,-149.82 205.31,-112 208.51,-99.14 213.27,-84.54 216.33,-75.54"/>
<polygon fill="midnightblue" stroke="midnightblue" points="180.69,-219.42 182.6,-229.84 187.6,-220.5 180.69,-219.42"/>
</g>
<!-- Node6 -->
<g id="node6" class="node">
<title>Node6</title>
<g id="a_node6"><a xlink:href="emergency__window_8cpp.html" target="_top" xlink:title=" ">
<polygon fill="none" stroke="black" points="15.81,-168.5 15.81,-187.5 152.81,-187.5 152.81,-168.5 15.81,-168.5"/>
<text text-anchor="middle" x="84.31" y="-175.5" font-family="Helvetica,sans-Serif" font-size="10.00">src/emergency_window.cpp</text>
</a>
</g>
</g>
<!-- Node2&#45;&gt;Node6 -->
<g id="edge5" class="edge">
<title>Node2&#45;&gt;Node6</title>
<path fill="none" stroke="midnightblue" d="M158.88,-224.74C140.14,-213.25 114.01,-197.22 98.18,-187.51"/>
<polygon fill="midnightblue" stroke="midnightblue" points="157.05,-227.73 167.41,-229.98 160.71,-221.76 157.05,-227.73"/>
</g>
<!-- Node4 -->
<g id="node4" class="node">
<title>Node4</title>
<g id="a_node4"><a xlink:href="main_8cpp.html" target="_top" xlink:title=" ">
<polygon fill="none" stroke="black" points="130.31,-0.5 130.31,-19.5 202.31,-19.5 202.31,-0.5 130.31,-0.5"/>
<text text-anchor="middle" x="166.31" y="-7.5" font-family="Helvetica,sans-Serif" font-size="10.00">src/main.cpp</text>
</a>
</g>
</g>
<!-- Node3&#45;&gt;Node4 -->
<g id="edge3" class="edge">
<title>Node3&#45;&gt;Node4</title>
<path fill="none" stroke="midnightblue" d="M203.32,-48.72C193.98,-39.2 182.56,-27.56 174.89,-19.75"/>
<polygon fill="midnightblue" stroke="midnightblue" points="201.05,-51.4 210.55,-56.08 206.05,-46.49 201.05,-51.4"/>
</g>
<!-- Node5 -->
<g id="node5" class="node">
<title>Node5</title>
<g id="a_node5"><a xlink:href="mainwindow_8cpp.html" target="_top" xlink:title=" ">
<polygon fill="none" stroke="black" points="220.81,-0.5 220.81,-19.5 325.81,-19.5 325.81,-0.5 220.81,-0.5"/>
<text text-anchor="middle" x="273.31" y="-7.5" font-family="Helvetica,sans-Serif" font-size="10.00">src/mainwindow.cpp</text>
</a>
</g>
</g>
<!-- Node3&#45;&gt;Node5 -->
<g id="edge4" class="edge">
<title>Node3&#45;&gt;Node5</title>
<path fill="none" stroke="midnightblue" d="M235.3,-49C244.87,-39.43 256.67,-27.64 264.55,-19.75"/>
<polygon fill="midnightblue" stroke="midnightblue" points="232.82,-46.54 228.22,-56.08 237.77,-51.49 232.82,-46.54"/>
</g>
<!-- Node7&#45;&gt;Node3 -->
<g id="edge13" class="edge">
<title>Node7&#45;&gt;Node3</title>
<path fill="none" stroke="midnightblue" d="M310.77,-229.35C284.61,-222.33 256.19,-209.92 238.31,-188 210.88,-154.39 215.1,-97.51 217.94,-75.79"/>
<polygon fill="midnightblue" stroke="midnightblue" points="310.11,-232.79 320.65,-231.79 311.78,-226 310.11,-232.79"/>
</g>
<!-- Node7&#45;&gt;Node8 -->
<g id="edge7" class="edge">
<title>Node7&#45;&gt;Node8</title>
<path fill="none" stroke="midnightblue" d="M393.33,-223.79C408.86,-212.38 429.86,-196.96 442.72,-187.51"/>
<polygon fill="midnightblue" stroke="midnightblue" points="390.9,-221.23 384.91,-229.98 395.04,-226.88 390.9,-221.23"/>
</g>
<!-- Node7&#45;&gt;Node9 -->
<g id="edge14" class="edge">
<title>Node7&#45;&gt;Node9</title>
<path fill="none" stroke="midnightblue" d="M373.74,-219.86C375.07,-204.19 379.35,-182.14 392.31,-168 409.89,-148.8 436.35,-137.78 460.23,-131.45"/>
<polygon fill="midnightblue" stroke="midnightblue" points="370.24,-219.77 373.21,-229.94 377.23,-220.14 370.24,-219.77"/>
</g>
<!-- Node12 -->
<g id="node12" class="node">
<title>Node12</title>
<g id="a_node12"><a xlink:href="epos4__can_8cpp.html" target="_top" xlink:title=" ">
<polygon fill="none" stroke="black" points="247.31,-168.5 247.31,-187.5 345.31,-187.5 345.31,-168.5 247.31,-168.5"/>
<text text-anchor="middle" x="296.31" y="-175.5" font-family="Helvetica,sans-Serif" font-size="10.00">src/epos4_can.cpp</text>
</a>
</g>
</g>
<!-- Node7&#45;&gt;Node12 -->
<g id="edge15" class="edge">
<title>Node7&#45;&gt;Node12</title>
<path fill="none" stroke="midnightblue" d="M354.27,-223.79C339.5,-212.38 319.54,-196.96 307.32,-187.51"/>
<polygon fill="midnightblue" stroke="midnightblue" points="352.22,-226.63 362.27,-229.98 356.5,-221.09 352.22,-226.63"/>
</g>
<!-- Node8&#45;&gt;Node3 -->
<g id="edge8" class="edge">
<title>Node8&#45;&gt;Node3</title>
<path fill="none" stroke="midnightblue" d="M417.8,-165.15C393.45,-156.84 360.97,-144.93 333.31,-132 295.53,-114.35 253.51,-88.72 232.61,-75.54"/>
<polygon fill="midnightblue" stroke="midnightblue" points="416.77,-168.5 427.36,-168.38 419,-161.87 416.77,-168.5"/>
</g>
<!-- Node8&#45;&gt;Node9 -->
<g id="edge9" class="edge">
<title>Node8&#45;&gt;Node9</title>
<path fill="none" stroke="midnightblue" d="M471.77,-161.54C482.65,-151.91 496.25,-139.87 505.33,-131.83"/>
<polygon fill="midnightblue" stroke="midnightblue" points="469.27,-159.07 464.11,-168.32 473.91,-164.32 469.27,-159.07"/>
</g>
<!-- Node11 -->
<g id="node11" class="node">
<title>Node11</title>
<g id="a_node11"><a xlink:href="eposthread_8cpp.html" target="_top" xlink:title=" ">
<polygon fill="none" stroke="black" points="342.81,-112.5 342.81,-131.5 441.81,-131.5 441.81,-112.5 342.81,-112.5"/>
<text text-anchor="middle" x="392.31" y="-119.5" font-family="Helvetica,sans-Serif" font-size="10.00">src/eposthread.cpp</text>
</a>
</g>
</g>
<!-- Node8&#45;&gt;Node11 -->
<g id="edge12" class="edge">
<title>Node8&#45;&gt;Node11</title>
<path fill="none" stroke="midnightblue" d="M436.55,-161.54C425.5,-151.91 411.67,-139.87 402.45,-131.83"/>
<polygon fill="midnightblue" stroke="midnightblue" points="434.5,-164.4 444.34,-168.32 439.1,-159.12 434.5,-164.4"/>
</g>
<!-- Node9&#45;&gt;Node3 -->
<g id="edge10" class="edge">
<title>Node9&#45;&gt;Node3</title>
<path fill="none" stroke="midnightblue" d="M458.3,-110.6C402.36,-100.4 318.08,-85.02 265.99,-75.52"/>
<polygon fill="midnightblue" stroke="midnightblue" points="457.94,-114.09 468.4,-112.44 459.19,-107.21 457.94,-114.09"/>
</g>
<!-- Node10 -->
<g id="node10" class="node">
<title>Node10</title>
<g id="a_node10"><a xlink:href="motorthread_8cpp.html" target="_top" xlink:title=" ">
<polygon fill="none" stroke="black" points="463.81,-56.5 463.81,-75.5 566.81,-75.5 566.81,-56.5 463.81,-56.5"/>
<text text-anchor="middle" x="515.31" y="-63.5" font-family="Helvetica,sans-Serif" font-size="10.00">src/motorthread.cpp</text>
</a>
</g>
</g>
<!-- Node9&#45;&gt;Node10 -->
<g id="edge11" class="edge">
<title>Node9&#45;&gt;Node10</title>
<path fill="none" stroke="midnightblue" d="M515.31,-101.8C515.31,-92.91 515.31,-82.78 515.31,-75.75"/>
<polygon fill="midnightblue" stroke="midnightblue" points="511.81,-102.08 515.31,-112.08 518.81,-102.08 511.81,-102.08"/>
</g>
<!-- Node13&#45;&gt;Node8 -->
<g id="edge18" class="edge">
<title>Node13&#45;&gt;Node8</title>
<path fill="none" stroke="midnightblue" d="M546.26,-225.37C523.39,-213.83 490.79,-197.4 471.18,-187.51"/>
<polygon fill="midnightblue" stroke="midnightblue" points="544.89,-228.6 555.4,-229.98 548.05,-222.35 544.89,-228.6"/>
</g>
<!-- Node13&#45;&gt;Node9 -->
<g id="edge19" class="edge">
<title>Node13&#45;&gt;Node9</title>
<path fill="none" stroke="midnightblue" d="M568.08,-220.05C564.32,-205.43 558.04,-184.73 549.31,-168 542.14,-154.29 530.87,-140.36 523.29,-131.71"/>
<polygon fill="midnightblue" stroke="midnightblue" points="564.71,-221 570.47,-229.89 571.51,-219.35 564.71,-221"/>
</g>
<!-- Node13&#45;&gt;Node14 -->
<g id="edge20" class="edge">
<title>Node13&#45;&gt;Node14</title>
<path fill="none" stroke="midnightblue" d="M591.09,-223.79C605.67,-212.38 625.37,-196.96 637.44,-187.51"/>
<polygon fill="midnightblue" stroke="midnightblue" points="588.91,-221.05 583.19,-229.98 593.23,-226.57 588.91,-221.05"/>
</g>
</g>
</svg>
