<?xml version="1.0" encoding="UTF-8" standalone="no"?>
<!DOCTYPE svg PUBLIC "-//W3C//DTD SVG 1.1//EN"
 "http://www.w3.org/Graphics/SVG/1.1/DTD/svg11.dtd">
<!-- Generated by graphviz version 3.0.0 (20220413.0106)
 -->
<!-- Title: include/mainwindow.h Pages: 1 -->
<svg width="899pt" height="263pt"
 viewBox="0.00 0.00 899.30 263.00" xmlns="http://www.w3.org/2000/svg" xmlns:xlink="http://www.w3.org/1999/xlink">
<g id="graph0" class="graph" transform="scale(1 1) rotate(0) translate(4 259)">
<title>include/mainwindow.h</title>
<!-- Node1 -->
<g id="node1" class="node">
<title>Node1</title>
<g id="a_node1"><a xlink:title=" ">
<polygon fill="#bfbfbf" stroke="black" points="419.3,-235.5 419.3,-254.5 531.3,-254.5 531.3,-235.5 419.3,-235.5"/>
<text text-anchor="middle" x="475.3" y="-242.5" font-family="Helvetica,sans-Serif" font-size="10.00">include/mainwindow.h</text>
</a>
</g>
</g>
<!-- Node2 -->
<g id="node2" class="node">
<title>Node2</title>
<g id="a_node2"><a xlink:title=" ">
<polygon fill="none" stroke="#bfbfbf" points="31.3,-123.5 31.3,-142.5 111.3,-142.5 111.3,-123.5 31.3,-123.5"/>
<text text-anchor="middle" x="71.3" y="-130.5" font-family="Helvetica,sans-Serif" font-size="10.00">QMainWindow</text>
</a>
</g>
</g>
<!-- Node1&#45;&gt;Node2 -->
<g id="edge1" class="edge">
<title>Node1&#45;&gt;Node2</title>
<path fill="none" stroke="midnightblue" d="M418.95,-242.77C300.16,-239.58 32.65,-229.1 5.3,-199 -11.78,-180.22 17.29,-159.89 42.09,-147.06"/>
<polygon fill="midnightblue" stroke="midnightblue" points="43.86,-150.09 51.29,-142.53 40.77,-143.81 43.86,-150.09"/>
</g>
<!-- Node3 -->
<g id="node3" class="node">
<title>Node3</title>
<g id="a_node3"><a xlink:title=" ">
<polygon fill="none" stroke="#bfbfbf" points="611.8,-123.5 611.8,-142.5 694.8,-142.5 694.8,-123.5 611.8,-123.5"/>
<text text-anchor="middle" x="653.3" y="-130.5" font-family="Helvetica,sans-Serif" font-size="10.00">QElapsedTimer</text>
</a>
</g>
</g>
<!-- Node1&#45;&gt;Node3 -->
<g id="edge2" class="edge">
<title>Node1&#45;&gt;Node3</title>
<path fill="none" stroke="midnightblue" d="M491.43,-235.37C507.73,-226.56 533.55,-212.31 555.3,-199 582.51,-182.35 613.01,-161.81 632.65,-148.33"/>
<polygon fill="midnightblue" stroke="midnightblue" points="634.86,-151.06 641.11,-142.5 630.89,-145.3 634.86,-151.06"/>
</g>
<!-- Node4 -->
<g id="node4" class="node">
<title>Node4</title>
<g id="a_node4"><a xlink:title=" ">
<polygon fill="none" stroke="#bfbfbf" points="695.8,-179.5 695.8,-198.5 748.8,-198.5 748.8,-179.5 695.8,-179.5"/>
<text text-anchor="middle" x="722.3" y="-186.5" font-family="Helvetica,sans-Serif" font-size="10.00">qstring.h</text>
</a>
</g>
</g>
<!-- Node1&#45;&gt;Node4 -->
<g id="edge3" class="edge">
<title>Node1&#45;&gt;Node4</title>
<path fill="none" stroke="midnightblue" d="M514.41,-235.47C555.85,-226.43 623.19,-211.72 681.3,-199 682.58,-198.72 683.88,-198.43 685.2,-198.15"/>
<polygon fill="midnightblue" stroke="midnightblue" points="686.37,-201.47 695.39,-195.91 684.87,-194.63 686.37,-201.47"/>
</g>
<!-- Node5 -->
<g id="node5" class="node">
<title>Node5</title>
<g id="a_node5"><a xlink:href="epos4__can_8h.html" target="_top" xlink:title=" ">
<polygon fill="none" stroke="black" points="343.8,-67.5 343.8,-86.5 414.8,-86.5 414.8,-67.5 343.8,-67.5"/>
<text text-anchor="middle" x="379.3" y="-74.5" font-family="Helvetica,sans-Serif" font-size="10.00">epos4_can.h</text>
</a>
</g>
</g>
<!-- Node1&#45;&gt;Node5 -->
<g id="edge4" class="edge">
<title>Node1&#45;&gt;Node5</title>
<path fill="none" stroke="midnightblue" d="M463.08,-235.41C442.06,-219.81 399.64,-184.58 382.3,-143 376.18,-128.34 375.88,-110.17 376.85,-96.77"/>
<polygon fill="midnightblue" stroke="midnightblue" points="380.33,-97.13 377.86,-86.82 373.37,-96.42 380.33,-97.13"/>
</g>
<!-- Node8 -->
<g id="node8" class="node">
<title>Node8</title>
<g id="a_node8"><a xlink:title=" ">
<polygon fill="none" stroke="#bfbfbf" points="542.8,-6 542.8,-25 601.8,-25 601.8,-6 542.8,-6"/>
<text text-anchor="middle" x="572.3" y="-13" font-family="Helvetica,sans-Serif" font-size="10.00">wiringPi.h</text>
</a>
</g>
</g>
<!-- Node1&#45;&gt;Node8 -->
<g id="edge34" class="edge">
<title>Node1&#45;&gt;Node8</title>
<path fill="none" stroke="midnightblue" d="M531.48,-236.88C586.33,-226.59 666.83,-201.82 704.3,-143 735.8,-93.53 653.06,-49.57 604.58,-28.94"/>
<polygon fill="midnightblue" stroke="midnightblue" points="605.68,-25.61 595.1,-25.01 603,-32.07 605.68,-25.61"/>
</g>
<!-- Node9 -->
<g id="node9" class="node">
<title>Node9</title>
<g id="a_node9"><a xlink:href="m__defines_8h.html" target="_top" xlink:title="Header file includes global definitions, including configuration values, pin mapping,...">
<polygon fill="none" stroke="black" points="199.3,-6 199.3,-25 267.3,-25 267.3,-6 199.3,-6"/>
<text text-anchor="middle" x="233.3" y="-13" font-family="Helvetica,sans-Serif" font-size="10.00">m_defines.h</text>
</a>
</g>
</g>
<!-- Node1&#45;&gt;Node9 -->
<g id="edge26" class="edge">
<title>Node1&#45;&gt;Node9</title>
<path fill="none" stroke="midnightblue" d="M458.71,-235.38C442.92,-226.9 418.74,-213.2 399.3,-199 338.78,-154.82 320.42,-145.25 273.3,-87 260.07,-70.64 248.65,-49.35 241.44,-34.46"/>
<polygon fill="midnightblue" stroke="midnightblue" points="244.56,-32.88 237.14,-25.32 238.22,-35.86 244.56,-32.88"/>
</g>
<!-- Node10 -->
<g id="node10" class="node">
<title>Node10</title>
<g id="a_node10"><a xlink:href="motorthread_8h.html" target="_top" xlink:title="Header file includes motorThread class blueprint which is encapsulation of main thread of debrider co...">
<polygon fill="none" stroke="black" points="470.3,-179.5 470.3,-198.5 546.3,-198.5 546.3,-179.5 470.3,-179.5"/>
<text text-anchor="middle" x="508.3" y="-186.5" font-family="Helvetica,sans-Serif" font-size="10.00">motorthread.h</text>
</a>
</g>
</g>
<!-- Node1&#45;&gt;Node10 -->
<g id="edge9" class="edge">
<title>Node1&#45;&gt;Node10</title>
<path fill="none" stroke="midnightblue" d="M480.75,-235.08C485.31,-227.61 491.96,-216.72 497.59,-207.52"/>
<polygon fill="midnightblue" stroke="midnightblue" points="500.72,-209.11 502.95,-198.75 494.75,-205.46 500.72,-209.11"/>
</g>
<!-- Node14 -->
<g id="node14" class="node">
<title>Node14</title>
<g id="a_node14"><a xlink:href="eposthread_8h.html" target="_top" xlink:title="Header file includes EposThread class, which implements time consuming processes related to EPOS cont...">
<polygon fill="none" stroke="black" points="407.3,-123.5 407.3,-142.5 479.3,-142.5 479.3,-123.5 407.3,-123.5"/>
<text text-anchor="middle" x="443.3" y="-130.5" font-family="Helvetica,sans-Serif" font-size="10.00">eposthread.h</text>
</a>
</g>
</g>
<!-- Node1&#45;&gt;Node14 -->
<g id="edge30" class="edge">
<title>Node1&#45;&gt;Node14</title>
<path fill="none" stroke="midnightblue" d="M472.53,-235.4C469.65,-226.36 465.03,-211.72 461.3,-199 456.7,-183.38 451.79,-165.55 448.26,-152.52"/>
<polygon fill="midnightblue" stroke="midnightblue" points="451.64,-151.6 445.65,-142.86 444.88,-153.42 451.64,-151.6"/>
</g>
<!-- Node15 -->
<g id="node15" class="node">
<title>Node15</title>
<g id="a_node15"><a xlink:href="emergency__window_8h.html" target="_top" xlink:title="Header file includes emergency window class which includes emergency messages, in case of any error o...">
<polygon fill="none" stroke="black" points="146.3,-179.5 146.3,-198.5 256.3,-198.5 256.3,-179.5 146.3,-179.5"/>
<text text-anchor="middle" x="201.3" y="-186.5" font-family="Helvetica,sans-Serif" font-size="10.00">emergency_window.h</text>
</a>
</g>
</g>
<!-- Node1&#45;&gt;Node15 -->
<g id="edge27" class="edge">
<title>Node1&#45;&gt;Node15</title>
<path fill="none" stroke="midnightblue" d="M431.88,-235.44C383.78,-225.96 306.2,-210.67 254.49,-200.48"/>
<polygon fill="midnightblue" stroke="midnightblue" points="255,-197.02 244.51,-198.52 253.64,-203.88 255,-197.02"/>
</g>
<!-- Node16 -->
<g id="node16" class="node">
<title>Node16</title>
<g id="a_node16"><a xlink:href="initialization__window_8h.html" target="_top" xlink:title="Header file includes initialization window class, checks if system is ready for running,...">
<polygon fill="none" stroke="black" points="14.8,-179.5 14.8,-198.5 127.8,-198.5 127.8,-179.5 14.8,-179.5"/>
<text text-anchor="middle" x="71.3" y="-186.5" font-family="Helvetica,sans-Serif" font-size="10.00">initialization_window.h</text>
</a>
</g>
</g>
<!-- Node1&#45;&gt;Node16 -->
<g id="edge31" class="edge">
<title>Node1&#45;&gt;Node16</title>
<path fill="none" stroke="midnightblue" d="M419.07,-236.57C354.09,-227.97 243.62,-213.31 138.02,-199.09"/>
<polygon fill="midnightblue" stroke="midnightblue" points="138.2,-195.59 127.82,-197.72 137.26,-202.52 138.2,-195.59"/>
</g>
<!-- Node17 -->
<g id="node17" class="node">
<title>Node17</title>
<g id="a_node17"><a xlink:title=" ">
<polygon fill="none" stroke="#bfbfbf" points="767.3,-179.5 767.3,-198.5 811.3,-198.5 811.3,-179.5 767.3,-179.5"/>
<text text-anchor="middle" x="789.3" y="-186.5" font-family="Helvetica,sans-Serif" font-size="10.00">thread</text>
</a>
</g>
</g>
<!-- Node1&#45;&gt;Node17 -->
<g id="edge33" class="edge">
<title>Node1&#45;&gt;Node17</title>
<path fill="none" stroke="midnightblue" d="M531.53,-237.16C586.74,-229.98 673.46,-217.44 757.11,-199.04"/>
<polygon fill="midnightblue" stroke="midnightblue" points="758.03,-202.42 767.03,-196.82 756.51,-195.59 758.03,-202.42"/>
</g>
<!-- Node18 -->
<g id="node18" class="node">
<title>Node18</title>
<g id="a_node18"><a xlink:title=" ">
<polygon fill="none" stroke="#bfbfbf" points="829.3,-179.5 829.3,-198.5 891.3,-198.5 891.3,-179.5 829.3,-179.5"/>
<text text-anchor="middle" x="860.3" y="-186.5" font-family="Helvetica,sans-Serif" font-size="10.00">softTone.h</text>
</a>
</g>
</g>
<!-- Node1&#45;&gt;Node18 -->
<g id="edge35" class="edge">
<title>Node1&#45;&gt;Node18</title>
<path fill="none" stroke="midnightblue" d="M531.41,-238.28C597.8,-231.15 711.87,-217.8 818.91,-199.11"/>
<polygon fill="midnightblue" stroke="midnightblue" points="819.67,-202.53 828.91,-197.35 818.45,-195.64 819.67,-202.53"/>
</g>
<!-- Node6 -->
<g id="node6" class="node">
<title>Node6</title>
<g id="a_node6"><a xlink:title=" ">
<polygon fill="none" stroke="#bfbfbf" points="285.3,-0.5 285.3,-30.5 391.3,-30.5 391.3,-0.5 285.3,-0.5"/>
<text text-anchor="start" x="293.3" y="-18.5" font-family="Helvetica,sans-Serif" font-size="10.00">EposCmdLib_6.5.1.0</text>
<text text-anchor="middle" x="338.3" y="-7.5" font-family="Helvetica,sans-Serif" font-size="10.00">/include/Definitions.h</text>
</a>
</g>
</g>
<!-- Node5&#45;&gt;Node6 -->
<g id="edge5" class="edge">
<title>Node5&#45;&gt;Node6</title>
<path fill="none" stroke="midnightblue" d="M373.42,-67.48C368.28,-60.02 360.59,-48.85 353.71,-38.87"/>
<polygon fill="midnightblue" stroke="midnightblue" points="356.52,-36.77 347.96,-30.52 350.75,-40.74 356.52,-36.77"/>
</g>
<!-- Node7 -->
<g id="node7" class="node">
<title>Node7</title>
<g id="a_node7"><a xlink:title=" ">
<polygon fill="none" stroke="#bfbfbf" points="409.3,-6 409.3,-25 463.3,-25 463.3,-6 409.3,-6"/>
<text text-anchor="middle" x="436.3" y="-13" font-family="Helvetica,sans-Serif" font-size="10.00">iostream</text>
</a>
</g>
</g>
<!-- Node5&#45;&gt;Node7 -->
<g id="edge6" class="edge">
<title>Node5&#45;&gt;Node7</title>
<path fill="none" stroke="midnightblue" d="M387.46,-67.48C396.18,-58.37 410.2,-43.74 420.98,-32.48"/>
<polygon fill="midnightblue" stroke="midnightblue" points="423.75,-34.65 428.14,-25.01 418.7,-29.81 423.75,-34.65"/>
</g>
<!-- Node5&#45;&gt;Node8 -->
<g id="edge7" class="edge">
<title>Node5&#45;&gt;Node8</title>
<path fill="none" stroke="midnightblue" d="M411.6,-67.45C443.12,-58.92 492.32,-45.08 534.3,-31 536.56,-30.24 538.88,-29.43 541.21,-28.6"/>
<polygon fill="midnightblue" stroke="midnightblue" points="542.54,-31.84 550.7,-25.09 540.11,-25.27 542.54,-31.84"/>
</g>
<!-- Node5&#45;&gt;Node9 -->
<g id="edge8" class="edge">
<title>Node5&#45;&gt;Node9</title>
<path fill="none" stroke="midnightblue" d="M358.38,-67.48C333.55,-57.36 291.95,-40.4 263.6,-28.85"/>
<polygon fill="midnightblue" stroke="midnightblue" points="264.76,-25.54 254.18,-25.01 262.12,-32.02 264.76,-25.54"/>
</g>
<!-- Node10&#45;&gt;Node3 -->
<g id="edge11" class="edge">
<title>Node10&#45;&gt;Node3</title>
<path fill="none" stroke="midnightblue" d="M531.27,-179.44C555.45,-170.44 593.71,-156.19 620.94,-146.05"/>
<polygon fill="midnightblue" stroke="midnightblue" points="622.28,-149.29 630.43,-142.52 619.84,-142.73 622.28,-149.29"/>
</g>
<!-- Node10&#45;&gt;Node5 -->
<g id="edge12" class="edge">
<title>Node10&#45;&gt;Node5</title>
<path fill="none" stroke="midnightblue" d="M470.04,-181.14C446.29,-174.99 416.87,-163.62 398.3,-143 386.87,-130.32 382.29,-111.12 380.47,-96.87"/>
<polygon fill="midnightblue" stroke="midnightblue" points="383.94,-96.35 379.52,-86.72 376.97,-97 383.94,-96.35"/>
</g>
<!-- Node10&#45;&gt;Node8 -->
<g id="edge14" class="edge">
<title>Node10&#45;&gt;Node8</title>
<path fill="none" stroke="midnightblue" d="M511.56,-179.26C521.57,-152.42 552.03,-70.82 565.62,-34.39"/>
<polygon fill="midnightblue" stroke="midnightblue" points="568.9,-35.61 569.12,-25.02 562.34,-33.16 568.9,-35.61"/>
</g>
<!-- Node10&#45;&gt;Node9 -->
<g id="edge13" class="edge">
<title>Node10&#45;&gt;Node9</title>
<path fill="none" stroke="midnightblue" d="M477.91,-179.45C451.84,-171.57 413.64,-158.74 382.3,-143 342.2,-122.86 332.41,-116.14 298.3,-87 278.83,-70.37 259.29,-48.27 246.79,-33.28"/>
<polygon fill="midnightblue" stroke="midnightblue" points="249.35,-30.88 240.3,-25.37 243.94,-35.32 249.35,-30.88"/>
</g>
<!-- Node11 -->
<g id="node11" class="node">
<title>Node11</title>
<g id="a_node11"><a xlink:title=" ">
<polygon fill="none" stroke="#bfbfbf" points="620.3,-6 620.3,-25 674.3,-25 674.3,-6 620.3,-6"/>
<text text-anchor="middle" x="647.3" y="-13" font-family="Helvetica,sans-Serif" font-size="10.00">QThread</text>
</a>
</g>
</g>
<!-- Node10&#45;&gt;Node11 -->
<g id="edge10" class="edge">
<title>Node10&#45;&gt;Node11</title>
<path fill="none" stroke="midnightblue" d="M515.38,-179.26C537.41,-152.08 604.98,-68.71 633.92,-33.01"/>
<polygon fill="midnightblue" stroke="midnightblue" points="636.81,-34.99 640.39,-25.02 631.38,-30.58 636.81,-34.99"/>
</g>
<!-- Node12 -->
<g id="node12" class="node">
<title>Node12</title>
<g id="a_node12"><a xlink:href="footpedal_8h.html" target="_top" xlink:title="Header file includes footpedal class for opening port and reading data from foot pedal; reads one ana...">
<polygon fill="none" stroke="black" points="471.3,-67.5 471.3,-86.5 535.3,-86.5 535.3,-67.5 471.3,-67.5"/>
<text text-anchor="middle" x="503.3" y="-74.5" font-family="Helvetica,sans-Serif" font-size="10.00">footpedal.h</text>
</a>
</g>
</g>
<!-- Node10&#45;&gt;Node12 -->
<g id="edge15" class="edge">
<title>Node10&#45;&gt;Node12</title>
<path fill="none" stroke="midnightblue" d="M507.9,-179.37C507.1,-161.62 505.24,-120.67 504.14,-96.6"/>
<polygon fill="midnightblue" stroke="midnightblue" points="507.64,-96.42 503.69,-86.59 500.64,-96.74 507.64,-96.42"/>
</g>
<!-- Node10&#45;&gt;Node14 -->
<g id="edge20" class="edge">
<title>Node10&#45;&gt;Node14</title>
<path fill="none" stroke="midnightblue" d="M497.85,-179.32C488.15,-171.26 473.48,-159.08 461.8,-149.37"/>
<polygon fill="midnightblue" stroke="midnightblue" points="463.86,-146.53 453.93,-142.83 459.39,-151.92 463.86,-146.53"/>
</g>
<!-- Node12&#45;&gt;Node8 -->
<g id="edge17" class="edge">
<title>Node12&#45;&gt;Node8</title>
<path fill="none" stroke="midnightblue" d="M513.18,-67.48C523.94,-58.2 541.37,-43.17 554.52,-31.83"/>
<polygon fill="midnightblue" stroke="midnightblue" points="557.14,-34.19 562.43,-25.01 552.57,-28.89 557.14,-34.19"/>
</g>
<!-- Node12&#45;&gt;Node9 -->
<g id="edge18" class="edge">
<title>Node12&#45;&gt;Node9</title>
<path fill="none" stroke="midnightblue" d="M471.04,-70.96C426.76,-63.73 344.82,-49.26 276.3,-31 273.1,-30.15 269.79,-29.19 266.5,-28.17"/>
<polygon fill="midnightblue" stroke="midnightblue" points="267.38,-24.78 256.79,-25.03 265.23,-31.44 267.38,-24.78"/>
</g>
<!-- Node12&#45;&gt;Node11 -->
<g id="edge16" class="edge">
<title>Node12&#45;&gt;Node11</title>
<path fill="none" stroke="midnightblue" d="M523.93,-67.48C548.42,-57.36 589.44,-40.4 617.41,-28.85"/>
<polygon fill="midnightblue" stroke="midnightblue" points="618.8,-32.06 626.7,-25.01 616.12,-25.59 618.8,-32.06"/>
</g>
<!-- Node13 -->
<g id="node13" class="node">
<title>Node13</title>
<g id="a_node13"><a xlink:title=" ">
<polygon fill="none" stroke="#bfbfbf" points="481.8,-6 481.8,-25 524.8,-25 524.8,-6 481.8,-6"/>
<text text-anchor="middle" x="503.3" y="-13" font-family="Helvetica,sans-Serif" font-size="10.00">time.h</text>
</a>
</g>
</g>
<!-- Node12&#45;&gt;Node13 -->
<g id="edge19" class="edge">
<title>Node12&#45;&gt;Node13</title>
<path fill="none" stroke="midnightblue" d="M503.3,-67.48C503.3,-59.08 503.3,-45.98 503.3,-35.16"/>
<polygon fill="midnightblue" stroke="midnightblue" points="506.8,-35.01 503.3,-25.01 499.8,-35.01 506.8,-35.01"/>
</g>
<!-- Node14&#45;&gt;Node5 -->
<g id="edge22" class="edge">
<title>Node14&#45;&gt;Node5</title>
<path fill="none" stroke="midnightblue" d="M433.01,-123.32C423.46,-115.26 409.02,-103.08 397.51,-93.37"/>
<polygon fill="midnightblue" stroke="midnightblue" points="399.67,-90.61 389.77,-86.83 395.15,-95.96 399.67,-90.61"/>
</g>
<!-- Node14&#45;&gt;Node8 -->
<g id="edge25" class="edge">
<title>Node14&#45;&gt;Node8</title>
<path fill="none" stroke="midnightblue" d="M443.6,-123.35C444.53,-109.79 448.16,-83.37 462.3,-67 467.9,-60.51 511.13,-41.74 541.69,-29.01"/>
<polygon fill="midnightblue" stroke="midnightblue" points="543.21,-32.17 551.1,-25.11 540.53,-25.7 543.21,-32.17"/>
</g>
<!-- Node14&#45;&gt;Node9 -->
<g id="edge24" class="edge">
<title>Node14&#45;&gt;Node9</title>
<path fill="none" stroke="midnightblue" d="M418.6,-123.4C396.26,-115.23 362.75,-101.99 335.3,-87 304.68,-70.29 271.96,-46.49 252.07,-31.27"/>
<polygon fill="midnightblue" stroke="midnightblue" points="254.17,-28.48 244.12,-25.13 249.89,-34.01 254.17,-28.48"/>
</g>
<!-- Node14&#45;&gt;Node11 -->
<g id="edge21" class="edge">
<title>Node14&#45;&gt;Node11</title>
<path fill="none" stroke="midnightblue" d="M465.52,-123.45C486.37,-115.12 518.16,-101.61 544.3,-87 574.94,-69.87 608.06,-46.18 628.24,-31.1"/>
<polygon fill="midnightblue" stroke="midnightblue" points="630.42,-33.84 636.3,-25.02 626.21,-28.25 630.42,-33.84"/>
</g>
<!-- Node14&#45;&gt;Node12 -->
<g id="edge23" class="edge">
<title>Node14&#45;&gt;Node12</title>
<path fill="none" stroke="midnightblue" d="M452.94,-123.32C461.81,-115.34 475.17,-103.31 485.9,-93.65"/>
<polygon fill="midnightblue" stroke="midnightblue" points="488.39,-96.13 493.48,-86.83 483.71,-90.92 488.39,-96.13"/>
</g>
<!-- Node15&#45;&gt;Node2 -->
<g id="edge28" class="edge">
<title>Node15&#45;&gt;Node2</title>
<path fill="none" stroke="midnightblue" d="M180.7,-179.44C159.3,-170.56 125.62,-156.56 101.27,-146.45"/>
<polygon fill="midnightblue" stroke="midnightblue" points="102.38,-143.12 91.8,-142.52 99.69,-149.58 102.38,-143.12"/>
</g>
<!-- Node15&#45;&gt;Node9 -->
<g id="edge29" class="edge">
<title>Node15&#45;&gt;Node9</title>
<path fill="none" stroke="midnightblue" d="M202.93,-179.26C207.91,-152.54 223.03,-71.52 229.87,-34.86"/>
<polygon fill="midnightblue" stroke="midnightblue" points="233.31,-35.49 231.71,-25.02 226.43,-34.21 233.31,-35.49"/>
</g>
<!-- Node16&#45;&gt;Node2 -->
<g id="edge32" class="edge">
<title>Node16&#45;&gt;Node2</title>
<path fill="none" stroke="midnightblue" d="M71.3,-179.08C71.3,-172.01 71.3,-161.86 71.3,-152.99"/>
<polygon fill="midnightblue" stroke="midnightblue" points="74.8,-152.75 71.3,-142.75 67.8,-152.75 74.8,-152.75"/>
</g>
</g>
</svg>
