<?xml version="1.0" encoding="UTF-8" standalone="no"?>
<!DOCTYPE svg PUBLIC "-//W3C//DTD SVG 1.1//EN"
 "http://www.w3.org/Graphics/SVG/1.1/DTD/svg11.dtd">
<!-- Generated by graphviz version 2.50.0 (20220203.2022)
 -->
<!-- Title: src/mainwindow.cpp Pages: 1 -->
<!--zoomable 319 -->
<svg id="main" version="1.1" xmlns="http://www.w3.org/2000/svg" xmlns:xlink="http://www.w3.org/1999/xlink" xml:space="preserve" onload="init(evt)">
<style type="text/css"><![CDATA[
.edge:hover path { stroke: red; }
.edge:hover polygon { stroke: red; fill: red; }
]]></style>
<script type="text/javascript"><![CDATA[
var edges = document.getElementsByTagName('g');
if (edges && edges.length) {
  for (var i=0;i<edges.length;i++) {
    if (edges[i].id.substr(0,4)=='edge') {
      edges[i].setAttribute('class','edge');
    }
  }
}
]]></script>
        <defs>
                <circle id="rim" cx="0" cy="0" r="7"/>
                <circle id="rim2" cx="0" cy="0" r="3.5"/>
                <g id="zoomPlus">
                        <use xlink:href="#rim" fill="#404040">
                                <set attributeName="fill" to="#808080" begin="zoomplus.mouseover" end="zoomplus.mouseout"/>
                        </use>
                        <path d="M-4,0h8M0,-4v8" fill="none" stroke="white" stroke-width="1.5" pointer-events="none"/>
                </g>
                <g id="zoomMin">
                        <use xlink:href="#rim" fill="#404040">
                                <set attributeName="fill" to="#808080" begin="zoomminus.mouseover" end="zoomminus.mouseout"/>
                        </use>
                        <path d="M-4,0h8" fill="none" stroke="white" stroke-width="1.5" pointer-events="none"/>
                </g>
                <g id="dirArrow">
                        <path fill="none" stroke="white" stroke-width="1.5" d="M0,-3.0v7 M-2.5,-0.5L0,-3.0L2.5,-0.5"/>
                </g>
               <g id="resetDef">
                       <use xlink:href="#rim2" fill="#404040">
                               <set attributeName="fill" to="#808080" begin="reset.mouseover" end="reset.mouseout"/>
                       </use>
               </g>
        </defs>

<script type="text/javascript">
var viewWidth = 893;
var viewHeight = 319;
var sectionId = 'dynsection-0';
</script>
<script xlink:href="svgpan.js"/>
<svg id="graph" class="graph">
<g id="viewport">
<title>src/mainwindow.cpp</title>
<!-- Node1 -->
<g id="node1" class="node">
<title>Node1</title>
<g id="a_node1"><a xlink:title=" ">
<polygon fill="#bfbfbf" stroke="black" points="448.76,-291.5 448.76,-310.5 553.76,-310.5 553.76,-291.5 448.76,-291.5"/>
<text text-anchor="middle" x="501.26" y="-298.5" font-family="Helvetica,sans-Serif" font-size="10.00">src/mainwindow.cpp</text>
</a>
</g>
</g>
<!-- Node2 -->
<g id="node2" class="node">
<title>Node2</title>
<g id="a_node2"><a xlink:href="mainwindow_8h.html" target="_top" xlink:title=" ">
<polygon fill="none" stroke="black" points="385.26,-235.5 385.26,-254.5 497.26,-254.5 497.26,-235.5 385.26,-235.5"/>
<text text-anchor="middle" x="441.26" y="-242.5" font-family="Helvetica,sans-Serif" font-size="10.00">include/mainwindow.h</text>
</a>
</g>
</g>
<!-- Node1&#45;&gt;Node2 -->
<g id="edge1" class="edge">
<title>Node1&#45;&gt;Node2</title>
<path fill="none" stroke="midnightblue" d="M491.62,-291.32C482.75,-283.34 469.39,-271.31 458.66,-261.65"/>
<polygon fill="midnightblue" stroke="midnightblue" points="460.85,-258.92 451.08,-254.83 456.17,-264.13 460.85,-258.92"/>
</g>
<!-- Node19 -->
<g id="node19" class="node">
<title>Node19</title>
<g id="a_node19"><a xlink:title=" ">
<polygon fill="none" stroke="#bfbfbf" points="515.76,-235.5 515.76,-254.5 606.76,-254.5 606.76,-235.5 515.76,-235.5"/>
<text text-anchor="middle" x="561.26" y="-242.5" font-family="Helvetica,sans-Serif" font-size="10.00">ui_mainwindow.h</text>
</a>
</g>
</g>
<!-- Node1&#45;&gt;Node19 -->
<g id="edge36" class="edge">
<title>Node1&#45;&gt;Node19</title>
<path fill="none" stroke="midnightblue" d="M510.9,-291.32C519.77,-283.34 533.14,-271.31 543.87,-261.65"/>
<polygon fill="midnightblue" stroke="midnightblue" points="546.36,-264.13 551.45,-254.83 541.67,-258.92 546.36,-264.13"/>
</g>
<!-- Node3 -->
<g id="node3" class="node">
<title>Node3</title>
<g id="a_node3"><a xlink:title=" ">
<polygon fill="none" stroke="#bfbfbf" points="31.26,-123.5 31.26,-142.5 111.26,-142.5 111.26,-123.5 31.26,-123.5"/>
<text text-anchor="middle" x="71.26" y="-130.5" font-family="Helvetica,sans-Serif" font-size="10.00">QMainWindow</text>
</a>
</g>
</g>
<!-- Node2&#45;&gt;Node3 -->
<g id="edge2" class="edge">
<title>Node2&#45;&gt;Node3</title>
<path fill="none" stroke="midnightblue" d="M385.18,-242.32C273.16,-238.39 30.27,-226.72 5.26,-199 -11.74,-180.15 17.31,-159.84 42.09,-147.03"/>
<polygon fill="midnightblue" stroke="midnightblue" points="43.85,-150.06 51.28,-142.51 40.76,-143.78 43.85,-150.06"/>
</g>
<!-- Node4 -->
<g id="node4" class="node">
<title>Node4</title>
<g id="a_node4"><a xlink:title=" ">
<polygon fill="none" stroke="#bfbfbf" points="611.76,-123.5 611.76,-142.5 694.76,-142.5 694.76,-123.5 611.76,-123.5"/>
<text text-anchor="middle" x="653.26" y="-130.5" font-family="Helvetica,sans-Serif" font-size="10.00">QElapsedTimer</text>
</a>
</g>
</g>
<!-- Node2&#45;&gt;Node4 -->
<g id="edge3" class="edge">
<title>Node2&#45;&gt;Node4</title>
<path fill="none" stroke="midnightblue" d="M467.05,-235.41C490.39,-227.25 525.42,-214.02 554.26,-199 583.08,-184 614.03,-162.76 633.51,-148.69"/>
<polygon fill="midnightblue" stroke="midnightblue" points="635.83,-151.33 641.85,-142.6 631.71,-145.68 635.83,-151.33"/>
</g>
<!-- Node5 -->
<g id="node5" class="node">
<title>Node5</title>
<g id="a_node5"><a xlink:title=" ">
<polygon fill="none" stroke="#bfbfbf" points="751.76,-179.5 751.76,-198.5 804.76,-198.5 804.76,-179.5 751.76,-179.5"/>
<text text-anchor="middle" x="778.26" y="-186.5" font-family="Helvetica,sans-Serif" font-size="10.00">qstring.h</text>
</a>
</g>
</g>
<!-- Node2&#45;&gt;Node5 -->
<g id="edge4" class="edge">
<title>Node2&#45;&gt;Node5</title>
<path fill="none" stroke="midnightblue" d="M497.36,-235.92C569.95,-225.38 692.42,-207.32 737.26,-199 738.55,-198.76 739.86,-198.51 741.19,-198.25"/>
<polygon fill="midnightblue" stroke="midnightblue" points="742.31,-201.59 751.41,-196.16 740.91,-194.74 742.31,-201.59"/>
</g>
<!-- Node6 -->
<g id="node6" class="node">
<title>Node6</title>
<g id="a_node6"><a xlink:href="epos4__can_8h.html" target="_top" xlink:title=" ">
<polygon fill="none" stroke="black" points="343.76,-67.5 343.76,-86.5 414.76,-86.5 414.76,-67.5 343.76,-67.5"/>
<text text-anchor="middle" x="379.26" y="-74.5" font-family="Helvetica,sans-Serif" font-size="10.00">epos4_can.h</text>
</a>
</g>
</g>
<!-- Node2&#45;&gt;Node6 -->
<g id="edge5" class="edge">
<title>Node2&#45;&gt;Node6</title>
<path fill="none" stroke="midnightblue" d="M434.32,-235.49C421.27,-218.9 393.37,-180.59 382.26,-143 377.8,-127.92 377.31,-110.02 377.78,-96.82"/>
<polygon fill="midnightblue" stroke="midnightblue" points="381.29,-96.82 378.38,-86.63 374.3,-96.41 381.29,-96.82"/>
</g>
<!-- Node9 -->
<g id="node9" class="node">
<title>Node9</title>
<g id="a_node9"><a xlink:title=" ">
<polygon fill="none" stroke="#bfbfbf" points="542.76,-6 542.76,-25 601.76,-25 601.76,-6 542.76,-6"/>
<text text-anchor="middle" x="572.26" y="-13" font-family="Helvetica,sans-Serif" font-size="10.00">wiringPi.h</text>
</a>
</g>
</g>
<!-- Node2&#45;&gt;Node9 -->
<g id="edge34" class="edge">
<title>Node2&#45;&gt;Node9</title>
<path fill="none" stroke="midnightblue" d="M478.41,-235.46C544.77,-219.33 679.14,-182.45 704.26,-143 735.77,-93.53 653.03,-49.57 604.55,-28.94"/>
<polygon fill="midnightblue" stroke="midnightblue" points="605.65,-25.61 595.07,-25.01 602.97,-32.07 605.65,-25.61"/>
</g>
<!-- Node10 -->
<g id="node10" class="node">
<title>Node10</title>
<g id="a_node10"><a xlink:href="m__defines_8h.html" target="_top" xlink:title="Header file includes global definitions, including configuration values, pin mapping,...">
<polygon fill="none" stroke="black" points="199.26,-6 199.26,-25 267.26,-25 267.26,-6 199.26,-6"/>
<text text-anchor="middle" x="233.26" y="-13" font-family="Helvetica,sans-Serif" font-size="10.00">m_defines.h</text>
</a>
</g>
</g>
<!-- Node2&#45;&gt;Node10 -->
<g id="edge27" class="edge">
<title>Node2&#45;&gt;Node10</title>
<path fill="none" stroke="midnightblue" d="M429.95,-235.44C401.18,-213.28 323.93,-151.26 273.26,-87 260.24,-70.48 248.78,-49.21 241.51,-34.37"/>
<polygon fill="midnightblue" stroke="midnightblue" points="244.63,-32.79 237.17,-25.27 238.31,-35.8 244.63,-32.79"/>
</g>
<!-- Node11 -->
<g id="node11" class="node">
<title>Node11</title>
<g id="a_node11"><a xlink:href="motorthread_8h.html" target="_top" xlink:title="Header file includes motorThread class blueprint which is encapsulation of main thread of debrider co...">
<polygon fill="none" stroke="black" points="469.26,-179.5 469.26,-198.5 545.26,-198.5 545.26,-179.5 469.26,-179.5"/>
<text text-anchor="middle" x="507.26" y="-186.5" font-family="Helvetica,sans-Serif" font-size="10.00">motorthread.h</text>
</a>
</g>
</g>
<!-- Node2&#45;&gt;Node11 -->
<g id="edge10" class="edge">
<title>Node2&#45;&gt;Node11</title>
<path fill="none" stroke="midnightblue" d="M451.87,-235.32C461.72,-227.26 476.61,-215.08 488.48,-205.37"/>
<polygon fill="midnightblue" stroke="midnightblue" points="490.94,-207.88 496.47,-198.83 486.51,-202.46 490.94,-207.88"/>
</g>
<!-- Node15 -->
<g id="node15" class="node">
<title>Node15</title>
<g id="a_node15"><a xlink:href="eposthread_8h.html" target="_top" xlink:title="Header file includes EposThread class, which implements time consuming processes related to EPOS cont...">
<polygon fill="none" stroke="black" points="407.26,-123.5 407.26,-142.5 479.26,-142.5 479.26,-123.5 407.26,-123.5"/>
<text text-anchor="middle" x="443.26" y="-130.5" font-family="Helvetica,sans-Serif" font-size="10.00">eposthread.h</text>
</a>
</g>
</g>
<!-- Node2&#45;&gt;Node15 -->
<g id="edge31" class="edge">
<title>Node2&#45;&gt;Node15</title>
<path fill="none" stroke="midnightblue" d="M441.42,-235.37C441.74,-217.62 442.49,-176.67 442.92,-152.6"/>
<polygon fill="midnightblue" stroke="midnightblue" points="446.42,-152.65 443.11,-142.59 439.43,-152.53 446.42,-152.65"/>
</g>
<!-- Node16 -->
<g id="node16" class="node">
<title>Node16</title>
<g id="a_node16"><a xlink:href="emergency__window_8h.html" target="_top" xlink:title="Header file includes emergency window class which includes emergency messages, in case of any error o...">
<polygon fill="none" stroke="black" points="146.26,-179.5 146.26,-198.5 256.26,-198.5 256.26,-179.5 146.26,-179.5"/>
<text text-anchor="middle" x="201.26" y="-186.5" font-family="Helvetica,sans-Serif" font-size="10.00">emergency_window.h</text>
</a>
</g>
</g>
<!-- Node2&#45;&gt;Node16 -->
<g id="edge28" class="edge">
<title>Node2&#45;&gt;Node16</title>
<path fill="none" stroke="midnightblue" d="M403.23,-235.44C361.45,-226.04 294.28,-210.93 248.99,-200.74"/>
<polygon fill="midnightblue" stroke="midnightblue" points="249.64,-197.3 239.11,-198.52 248.1,-204.13 249.64,-197.3"/>
</g>
<!-- Node17 -->
<g id="node17" class="node">
<title>Node17</title>
<g id="a_node17"><a xlink:href="initialization__window_8h.html" target="_top" xlink:title="Header file includes initialization window class, checks if system is ready for running,...">
<polygon fill="none" stroke="black" points="14.76,-179.5 14.76,-198.5 127.76,-198.5 127.76,-179.5 14.76,-179.5"/>
<text text-anchor="middle" x="71.26" y="-186.5" font-family="Helvetica,sans-Serif" font-size="10.00">initialization_window.h</text>
</a>
</g>
</g>
<!-- Node2&#45;&gt;Node17 -->
<g id="edge32" class="edge">
<title>Node2&#45;&gt;Node17</title>
<path fill="none" stroke="midnightblue" d="M385.07,-235.8C318.78,-226.12 208.71,-210.06 138.11,-199.76"/>
<polygon fill="midnightblue" stroke="midnightblue" points="138.39,-196.26 127.99,-198.28 137.38,-203.19 138.39,-196.26"/>
</g>
<!-- Node18 -->
<g id="node18" class="node">
<title>Node18</title>
<g id="a_node18"><a xlink:title=" ">
<polygon fill="none" stroke="#bfbfbf" points="823.26,-179.5 823.26,-198.5 885.26,-198.5 885.26,-179.5 823.26,-179.5"/>
<text text-anchor="middle" x="854.26" y="-186.5" font-family="Helvetica,sans-Serif" font-size="10.00">softTone.h</text>
</a>
</g>
</g>
<!-- Node2&#45;&gt;Node18 -->
<g id="edge35" class="edge">
<title>Node2&#45;&gt;Node18</title>
<path fill="none" stroke="midnightblue" d="M497.42,-236.27C500.75,-235.83 504.05,-235.41 507.26,-235 640.36,-218.12 677.13,-221.92 812.93,-199.08"/>
<polygon fill="midnightblue" stroke="midnightblue" points="813.61,-202.51 822.88,-197.39 812.44,-195.61 813.61,-202.51"/>
</g>
<!-- Node7 -->
<g id="node7" class="node">
<title>Node7</title>
<g id="a_node7"><a xlink:title=" ">
<polygon fill="none" stroke="#bfbfbf" points="285.26,-0.5 285.26,-30.5 391.26,-30.5 391.26,-0.5 285.26,-0.5"/>
<text text-anchor="start" x="293.26" y="-18.5" font-family="Helvetica,sans-Serif" font-size="10.00">EposCmdLib_6.5.1.0</text>
<text text-anchor="middle" x="338.26" y="-7.5" font-family="Helvetica,sans-Serif" font-size="10.00">/include/Definitions.h</text>
</a>
</g>
</g>
<!-- Node6&#45;&gt;Node7 -->
<g id="edge6" class="edge">
<title>Node6&#45;&gt;Node7</title>
<path fill="none" stroke="midnightblue" d="M373.39,-67.48C368.25,-60.02 360.56,-48.85 353.68,-38.87"/>
<polygon fill="midnightblue" stroke="midnightblue" points="356.48,-36.77 347.93,-30.52 350.72,-40.74 356.48,-36.77"/>
</g>
<!-- Node8 -->
<g id="node8" class="node">
<title>Node8</title>
<g id="a_node8"><a xlink:title=" ">
<polygon fill="none" stroke="#bfbfbf" points="409.26,-6 409.26,-25 463.26,-25 463.26,-6 409.26,-6"/>
<text text-anchor="middle" x="436.26" y="-13" font-family="Helvetica,sans-Serif" font-size="10.00">iostream</text>
</a>
</g>
</g>
<!-- Node6&#45;&gt;Node8 -->
<g id="edge7" class="edge">
<title>Node6&#45;&gt;Node8</title>
<path fill="none" stroke="midnightblue" d="M387.43,-67.48C396.15,-58.37 410.17,-43.74 420.95,-32.48"/>
<polygon fill="midnightblue" stroke="midnightblue" points="423.72,-34.65 428.11,-25.01 418.67,-29.81 423.72,-34.65"/>
</g>
<!-- Node6&#45;&gt;Node9 -->
<g id="edge8" class="edge">
<title>Node6&#45;&gt;Node9</title>
<path fill="none" stroke="midnightblue" d="M411.56,-67.45C443.08,-58.92 492.29,-45.08 534.26,-31 536.52,-30.24 538.85,-29.43 541.18,-28.6"/>
<polygon fill="midnightblue" stroke="midnightblue" points="542.5,-31.84 550.67,-25.09 540.08,-25.27 542.5,-31.84"/>
</g>
<!-- Node6&#45;&gt;Node10 -->
<g id="edge9" class="edge">
<title>Node6&#45;&gt;Node10</title>
<path fill="none" stroke="midnightblue" d="M358.34,-67.48C333.52,-57.36 291.92,-40.4 263.57,-28.85"/>
<polygon fill="midnightblue" stroke="midnightblue" points="264.72,-25.54 254.14,-25.01 262.08,-32.02 264.72,-25.54"/>
</g>
<!-- Node11&#45;&gt;Node4 -->
<g id="edge12" class="edge">
<title>Node11&#45;&gt;Node4</title>
<path fill="none" stroke="midnightblue" d="M530.4,-179.44C554.75,-170.44 593.27,-156.19 620.69,-146.05"/>
<polygon fill="midnightblue" stroke="midnightblue" points="622.07,-149.27 630.24,-142.52 619.64,-142.7 622.07,-149.27"/>
</g>
<!-- Node11&#45;&gt;Node6 -->
<g id="edge13" class="edge">
<title>Node11&#45;&gt;Node6</title>
<path fill="none" stroke="midnightblue" d="M469.08,-180.99C445.6,-174.78 416.59,-163.41 398.26,-143 386.86,-130.3 382.28,-111.1 380.45,-96.86"/>
<polygon fill="midnightblue" stroke="midnightblue" points="383.92,-96.34 379.5,-86.71 376.95,-97 383.92,-96.34"/>
</g>
<!-- Node11&#45;&gt;Node9 -->
<g id="edge15" class="edge">
<title>Node11&#45;&gt;Node9</title>
<path fill="none" stroke="midnightblue" d="M510.58,-179.26C520.75,-152.42 551.68,-70.82 565.48,-34.39"/>
<polygon fill="midnightblue" stroke="midnightblue" points="568.76,-35.61 569.03,-25.02 562.22,-33.13 568.76,-35.61"/>
</g>
<!-- Node11&#45;&gt;Node10 -->
<g id="edge14" class="edge">
<title>Node11&#45;&gt;Node10</title>
<path fill="none" stroke="midnightblue" d="M477.38,-179.49C451.52,-171.6 413.47,-158.72 382.26,-143 342.19,-122.81 332.38,-116.14 298.26,-87 278.79,-70.37 259.26,-48.27 246.76,-33.28"/>
<polygon fill="midnightblue" stroke="midnightblue" points="249.32,-30.88 240.27,-25.37 243.91,-35.32 249.32,-30.88"/>
</g>
<!-- Node12 -->
<g id="node12" class="node">
<title>Node12</title>
<g id="a_node12"><a xlink:title=" ">
<polygon fill="none" stroke="#bfbfbf" points="620.26,-6 620.26,-25 674.26,-25 674.26,-6 620.26,-6"/>
<text text-anchor="middle" x="647.26" y="-13" font-family="Helvetica,sans-Serif" font-size="10.00">QThread</text>
</a>
</g>
</g>
<!-- Node11&#45;&gt;Node12 -->
<g id="edge11" class="edge">
<title>Node11&#45;&gt;Node12</title>
<path fill="none" stroke="midnightblue" d="M514.4,-179.26C536.59,-152.08 604.64,-68.71 633.79,-33.01"/>
<polygon fill="midnightblue" stroke="midnightblue" points="636.7,-34.98 640.31,-25.02 631.27,-30.55 636.7,-34.98"/>
</g>
<!-- Node13 -->
<g id="node13" class="node">
<title>Node13</title>
<g id="a_node13"><a xlink:href="footpedal_8h.html" target="_top" xlink:title="Header file includes footpedal class for opening port and reading data from foot pedal; reads one ana...">
<polygon fill="none" stroke="black" points="471.26,-67.5 471.26,-86.5 535.26,-86.5 535.26,-67.5 471.26,-67.5"/>
<text text-anchor="middle" x="503.26" y="-74.5" font-family="Helvetica,sans-Serif" font-size="10.00">footpedal.h</text>
</a>
</g>
</g>
<!-- Node11&#45;&gt;Node13 -->
<g id="edge16" class="edge">
<title>Node11&#45;&gt;Node13</title>
<path fill="none" stroke="midnightblue" d="M506.95,-179.37C506.3,-161.62 504.81,-120.67 503.94,-96.6"/>
<polygon fill="midnightblue" stroke="midnightblue" points="507.44,-96.46 503.58,-86.59 500.44,-96.71 507.44,-96.46"/>
</g>
<!-- Node11&#45;&gt;Node15 -->
<g id="edge21" class="edge">
<title>Node11&#45;&gt;Node15</title>
<path fill="none" stroke="midnightblue" d="M496.98,-179.32C487.43,-171.26 472.98,-159.08 461.48,-149.37"/>
<polygon fill="midnightblue" stroke="midnightblue" points="463.63,-146.61 453.73,-142.83 459.12,-151.96 463.63,-146.61"/>
</g>
<!-- Node13&#45;&gt;Node9 -->
<g id="edge18" class="edge">
<title>Node13&#45;&gt;Node9</title>
<path fill="none" stroke="midnightblue" d="M513.15,-67.48C523.91,-58.2 541.33,-43.17 554.48,-31.83"/>
<polygon fill="midnightblue" stroke="midnightblue" points="557.11,-34.19 562.4,-25.01 552.54,-28.89 557.11,-34.19"/>
</g>
<!-- Node13&#45;&gt;Node10 -->
<g id="edge19" class="edge">
<title>Node13&#45;&gt;Node10</title>
<path fill="none" stroke="midnightblue" d="M471.01,-70.96C426.72,-63.73 344.78,-49.26 276.26,-31 273.07,-30.15 269.76,-29.19 266.47,-28.17"/>
<polygon fill="midnightblue" stroke="midnightblue" points="267.34,-24.78 256.75,-25.03 265.19,-31.44 267.34,-24.78"/>
</g>
<!-- Node13&#45;&gt;Node12 -->
<g id="edge17" class="edge">
<title>Node13&#45;&gt;Node12</title>
<path fill="none" stroke="midnightblue" d="M523.89,-67.48C548.38,-57.36 589.41,-40.4 617.37,-28.85"/>
<polygon fill="midnightblue" stroke="midnightblue" points="618.76,-32.06 626.67,-25.01 616.09,-25.59 618.76,-32.06"/>
</g>
<!-- Node14 -->
<g id="node14" class="node">
<title>Node14</title>
<g id="a_node14"><a xlink:title=" ">
<polygon fill="none" stroke="#bfbfbf" points="481.76,-6 481.76,-25 524.76,-25 524.76,-6 481.76,-6"/>
<text text-anchor="middle" x="503.26" y="-13" font-family="Helvetica,sans-Serif" font-size="10.00">time.h</text>
</a>
</g>
</g>
<!-- Node13&#45;&gt;Node14 -->
<g id="edge20" class="edge">
<title>Node13&#45;&gt;Node14</title>
<path fill="none" stroke="midnightblue" d="M503.26,-67.48C503.26,-59.08 503.26,-45.98 503.26,-35.16"/>
<polygon fill="midnightblue" stroke="midnightblue" points="506.76,-35.01 503.26,-25.01 499.76,-35.01 506.76,-35.01"/>
</g>
<!-- Node15&#45;&gt;Node6 -->
<g id="edge23" class="edge">
<title>Node15&#45;&gt;Node6</title>
<path fill="none" stroke="midnightblue" d="M432.98,-123.32C423.43,-115.26 408.98,-103.08 397.48,-93.37"/>
<polygon fill="midnightblue" stroke="midnightblue" points="399.63,-90.61 389.73,-86.83 395.12,-95.96 399.63,-90.61"/>
</g>
<!-- Node15&#45;&gt;Node9 -->
<g id="edge26" class="edge">
<title>Node15&#45;&gt;Node9</title>
<path fill="none" stroke="midnightblue" d="M443.57,-123.35C444.49,-109.79 448.12,-83.37 462.26,-67 467.87,-60.51 511.1,-41.74 541.66,-29.01"/>
<polygon fill="midnightblue" stroke="midnightblue" points="543.17,-32.17 551.07,-25.11 540.49,-25.7 543.17,-32.17"/>
</g>
<!-- Node15&#45;&gt;Node10 -->
<g id="edge25" class="edge">
<title>Node15&#45;&gt;Node10</title>
<path fill="none" stroke="midnightblue" d="M418.57,-123.4C396.22,-115.23 362.72,-101.99 335.26,-87 304.65,-70.29 271.93,-46.49 252.03,-31.27"/>
<polygon fill="midnightblue" stroke="midnightblue" points="254.14,-28.48 244.09,-25.13 249.86,-34.01 254.14,-28.48"/>
</g>
<!-- Node15&#45;&gt;Node12 -->
<g id="edge22" class="edge">
<title>Node15&#45;&gt;Node12</title>
<path fill="none" stroke="midnightblue" d="M465.49,-123.45C486.34,-115.12 518.12,-101.61 544.26,-87 574.91,-69.87 608.02,-46.18 628.2,-31.1"/>
<polygon fill="midnightblue" stroke="midnightblue" points="630.39,-33.84 636.26,-25.02 626.17,-28.25 630.39,-33.84"/>
</g>
<!-- Node15&#45;&gt;Node13 -->
<g id="edge24" class="edge">
<title>Node15&#45;&gt;Node13</title>
<path fill="none" stroke="midnightblue" d="M452.9,-123.32C461.77,-115.34 475.14,-103.31 485.87,-93.65"/>
<polygon fill="midnightblue" stroke="midnightblue" points="488.36,-96.13 493.45,-86.83 483.67,-90.92 488.36,-96.13"/>
</g>
<!-- Node16&#45;&gt;Node3 -->
<g id="edge29" class="edge">
<title>Node16&#45;&gt;Node3</title>
<path fill="none" stroke="midnightblue" d="M180.66,-179.44C159.27,-170.56 125.58,-156.56 101.24,-146.45"/>
<polygon fill="midnightblue" stroke="midnightblue" points="102.34,-143.12 91.77,-142.52 99.66,-149.58 102.34,-143.12"/>
</g>
<!-- Node16&#45;&gt;Node10 -->
<g id="edge30" class="edge">
<title>Node16&#45;&gt;Node10</title>
<path fill="none" stroke="midnightblue" d="M202.89,-179.26C207.88,-152.54 223,-71.52 229.84,-34.86"/>
<polygon fill="midnightblue" stroke="midnightblue" points="233.28,-35.49 231.67,-25.02 226.4,-34.21 233.28,-35.49"/>
</g>
<!-- Node17&#45;&gt;Node3 -->
<g id="edge33" class="edge">
<title>Node17&#45;&gt;Node3</title>
<path fill="none" stroke="midnightblue" d="M71.26,-179.08C71.26,-172.01 71.26,-161.86 71.26,-152.99"/>
<polygon fill="midnightblue" stroke="midnightblue" points="74.76,-152.75 71.26,-142.75 67.76,-152.75 74.76,-152.75"/>
</g>
</g>
</svg>
        <g id="navigator" transform="translate(0 0)" fill="#404254">
                <rect fill="#f2f5e9" fill-opacity="0.5" stroke="#606060" stroke-width=".5" x="0" y="0" width="60" height="60"/>
                <use id="zoomplus" xlink:href="#zoomPlus" x="17" y="9" onmousedown="handleZoom(evt,'in')"/>
                <use id="zoomminus" xlink:href="#zoomMin" x="42" y="9" onmousedown="handleZoom(evt,'out')"/>
                <use id="reset" xlink:href="#resetDef" x="30" y="36" onmousedown="handleReset()"/>
                <g id="arrowUp" xlink:href="#dirArrow" transform="translate(30 24)" onmousedown="handlePan(0,-1)">
                  <use xlink:href="#rim" fill="#404040">
                        <set attributeName="fill" to="#808080" begin="arrowUp.mouseover" end="arrowUp.mouseout"/>
                  </use>
                  <path fill="none" stroke="white" stroke-width="1.5" d="M0,-3.0v7 M-2.5,-0.5L0,-3.0L2.5,-0.5"/>
                </g>
                <g id="arrowRight" xlink:href="#dirArrow" transform="rotate(90) translate(36 -43)" onmousedown="handlePan(1,0)">
                  <use xlink:href="#rim" fill="#404040">
                        <set attributeName="fill" to="#808080" begin="arrowRight.mouseover" end="arrowRight.mouseout"/>
                  </use>
                  <path fill="none" stroke="white" stroke-width="1.5" d="M0,-3.0v7 M-2.5,-0.5L0,-3.0L2.5,-0.5"/>
                </g>
                <g id="arrowDown" xlink:href="#dirArrow" transform="rotate(180) translate(-30 -48)" onmousedown="handlePan(0,1)">
                  <use xlink:href="#rim" fill="#404040">
                        <set attributeName="fill" to="#808080" begin="arrowDown.mouseover" end="arrowDown.mouseout"/>
                  </use>
                  <path fill="none" stroke="white" stroke-width="1.5" d="M0,-3.0v7 M-2.5,-0.5L0,-3.0L2.5,-0.5"/>
                </g>
                <g id="arrowLeft" xlink:href="#dirArrow" transform="rotate(270) translate(-36 17)" onmousedown="handlePan(-1,0)">
                  <use xlink:href="#rim" fill="#404040">
                        <set attributeName="fill" to="#808080" begin="arrowLeft.mouseover" end="arrowLeft.mouseout"/>
                  </use>
                  <path fill="none" stroke="white" stroke-width="1.5" d="M0,-3.0v7 M-2.5,-0.5L0,-3.0L2.5,-0.5"/>
                </g>
        </g>
        <svg viewBox="0 0 15 15" width="100%" height="30px" preserveAspectRatio="xMaxYMin meet">
         <g id="arrow_out" transform="scale(0.3 0.3)">
          <a xlink:href="mainwindow_8cpp__incl_org.svg" target="_base">
           <rect id="button" ry="5" rx="5" y="6" x="6" height="38" width="38"
                fill="#f2f5e9" fill-opacity="0.5" stroke="#606060" stroke-width="1.0"/>
           <path id="arrow"
             d="M 11.500037,31.436501 C 11.940474,20.09759 22.043105,11.32322 32.158766,21.979434 L 37.068811,17.246167 C 37.068811,17.246167 37.088388,32 37.088388,32 L 22.160133,31.978069 C 22.160133,31.978069 26.997745,27.140456 26.997745,27.140456 C 18.528582,18.264221 13.291696,25.230495 11.500037,31.436501 z"
             style="fill:#404040;"/>
          </a>
         </g>
        </svg>
</svg>
