<?xml version="1.0" encoding="UTF-8" standalone="no"?>
<!DOCTYPE svg PUBLIC "-//W3C//DTD SVG 1.1//EN"
 "http://www.w3.org/Graphics/SVG/1.1/DTD/svg11.dtd">
<!-- Generated by graphviz version 2.50.0 (20220203.2022)
 -->
<!-- Title: include/motorthread.h Pages: 1 -->
<svg width="483pt" height="207pt"
 viewBox="0.00 0.00 483.00 207.00" xmlns="http://www.w3.org/2000/svg" xmlns:xlink="http://www.w3.org/1999/xlink">
<g id="graph0" class="graph" transform="scale(1 1) rotate(0) translate(4 203)">
<title>include/motorthread.h</title>
<!-- Node1 -->
<g id="node1" class="node">
<title>Node1</title>
<g id="a_node1"><a xlink:title="Header file includes motorThread class blueprint which is encapsulation of main thread of debrider co...">
<polygon fill="#bfbfbf" stroke="black" points="154,-179.5 154,-198.5 264,-198.5 264,-179.5 154,-179.5"/>
<text text-anchor="middle" x="209" y="-186.5" font-family="Helvetica,sans-Serif" font-size="10.00">include/motorthread.h</text>
</a>
</g>
</g>
<!-- Node2 -->
<g id="node2" class="node">
<title>Node2</title>
<g id="a_node2"><a xlink:title=" ">
<polygon fill="none" stroke="#bfbfbf" points="0,-6 0,-25 54,-25 54,-6 0,-6"/>
<text text-anchor="middle" x="27" y="-13" font-family="Helvetica,sans-Serif" font-size="10.00">QThread</text>
</a>
</g>
</g>
<!-- Node1&#45;&gt;Node2 -->
<g id="edge1" class="edge">
<title>Node1&#45;&gt;Node2</title>
<path fill="none" stroke="midnightblue" d="M178.13,-179.46C138.28,-166.63 70.35,-138.25 39,-87 29.4,-71.3 26.89,-50.15 26.48,-35.12"/>
<polygon fill="midnightblue" stroke="midnightblue" points="29.98,-35.02 26.5,-25.01 22.98,-35.01 29.98,-35.02"/>
</g>
<!-- Node3 -->
<g id="node3" class="node">
<title>Node3</title>
<g id="a_node3"><a xlink:title=" ">
<polygon fill="none" stroke="#bfbfbf" points="339.5,-123.5 339.5,-142.5 422.5,-142.5 422.5,-123.5 339.5,-123.5"/>
<text text-anchor="middle" x="381" y="-130.5" font-family="Helvetica,sans-Serif" font-size="10.00">QElapsedTimer</text>
</a>
</g>
</g>
<!-- Node1&#45;&gt;Node3 -->
<g id="edge2" class="edge">
<title>Node1&#45;&gt;Node3</title>
<path fill="none" stroke="midnightblue" d="M236.25,-179.44C265.44,-170.28 311.92,-155.69 344.31,-145.52"/>
<polygon fill="midnightblue" stroke="midnightblue" points="345.38,-148.85 353.87,-142.52 343.28,-142.17 345.38,-148.85"/>
</g>
<!-- Node4 -->
<g id="node4" class="node">
<title>Node4</title>
<g id="a_node4"><a xlink:href="epos4__can_8h.html" target="_top" xlink:title=" ">
<polygon fill="none" stroke="black" points="301.5,-67.5 301.5,-86.5 372.5,-86.5 372.5,-67.5 301.5,-67.5"/>
<text text-anchor="middle" x="337" y="-74.5" font-family="Helvetica,sans-Serif" font-size="10.00">epos4_can.h</text>
</a>
</g>
</g>
<!-- Node1&#45;&gt;Node4 -->
<g id="edge3" class="edge">
<title>Node1&#45;&gt;Node4</title>
<path fill="none" stroke="midnightblue" d="M228.64,-179.35C245.29,-171.41 269.24,-158.55 287,-143 302.84,-129.13 317.06,-109.6 326.25,-95.57"/>
<polygon fill="midnightblue" stroke="midnightblue" points="329.37,-97.19 331.77,-86.87 323.46,-93.44 329.37,-97.19"/>
</g>
<!-- Node7 -->
<g id="node7" class="node">
<title>Node7</title>
<g id="a_node7"><a xlink:title=" ">
<polygon fill="none" stroke="#bfbfbf" points="133.5,-6 133.5,-25 192.5,-25 192.5,-6 133.5,-6"/>
<text text-anchor="middle" x="163" y="-13" font-family="Helvetica,sans-Serif" font-size="10.00">wiringPi.h</text>
</a>
</g>
</g>
<!-- Node1&#45;&gt;Node7 -->
<g id="edge9" class="edge">
<title>Node1&#45;&gt;Node7</title>
<path fill="none" stroke="midnightblue" d="M195.97,-179.42C185.14,-171.45 170.49,-158.49 164,-143 149.06,-107.34 154.2,-60.91 158.86,-35.38"/>
<polygon fill="midnightblue" stroke="midnightblue" points="162.36,-35.73 160.9,-25.23 155.5,-34.35 162.36,-35.73"/>
</g>
<!-- Node8 -->
<g id="node8" class="node">
<title>Node8</title>
<g id="a_node8"><a xlink:href="m__defines_8h.html" target="_top" xlink:title="Header file includes global definitions, including configuration values, pin mapping,...">
<polygon fill="none" stroke="black" points="211,-6 211,-25 279,-25 279,-6 211,-6"/>
<text text-anchor="middle" x="245" y="-13" font-family="Helvetica,sans-Serif" font-size="10.00">m_defines.h</text>
</a>
</g>
</g>
<!-- Node1&#45;&gt;Node8 -->
<g id="edge8" class="edge">
<title>Node1&#45;&gt;Node8</title>
<path fill="none" stroke="midnightblue" d="M222.06,-179.44C232.91,-171.47 247.57,-158.52 254,-143 268.9,-107.03 258.92,-60.39 251.32,-34.99"/>
<polygon fill="midnightblue" stroke="midnightblue" points="254.58,-33.67 248.2,-25.21 247.91,-35.8 254.58,-33.67"/>
</g>
<!-- Node9 -->
<g id="node9" class="node">
<title>Node9</title>
<g id="a_node9"><a xlink:href="footpedal_8h.html" target="_top" xlink:title="Header file includes footpedal class for opening port and reading data from foot pedal; reads one ana...">
<polygon fill="none" stroke="black" points="67,-67.5 67,-86.5 131,-86.5 131,-67.5 67,-67.5"/>
<text text-anchor="middle" x="99" y="-74.5" font-family="Helvetica,sans-Serif" font-size="10.00">footpedal.h</text>
</a>
</g>
</g>
<!-- Node1&#45;&gt;Node9 -->
<g id="edge10" class="edge">
<title>Node1&#45;&gt;Node9</title>
<path fill="none" stroke="midnightblue" d="M186.81,-179.44C169.78,-171.96 146.6,-159.66 131,-143 118.4,-129.54 109.73,-110.17 104.63,-96.08"/>
<polygon fill="midnightblue" stroke="midnightblue" points="107.92,-94.89 101.42,-86.52 101.28,-97.12 107.92,-94.89"/>
</g>
<!-- Node11 -->
<g id="node11" class="node">
<title>Node11</title>
<g id="a_node11"><a xlink:href="eposthread_8h.html" target="_top" xlink:title="Header file includes EposThread class, which implements time consuming processes related to EPOS cont...">
<polygon fill="none" stroke="black" points="173,-123.5 173,-142.5 245,-142.5 245,-123.5 173,-123.5"/>
<text text-anchor="middle" x="209" y="-130.5" font-family="Helvetica,sans-Serif" font-size="10.00">eposthread.h</text>
</a>
</g>
</g>
<!-- Node1&#45;&gt;Node11 -->
<g id="edge15" class="edge">
<title>Node1&#45;&gt;Node11</title>
<path fill="none" stroke="midnightblue" d="M209,-179.08C209,-172.01 209,-161.86 209,-152.99"/>
<polygon fill="midnightblue" stroke="midnightblue" points="212.5,-152.75 209,-142.75 205.5,-152.75 212.5,-152.75"/>
</g>
<!-- Node5 -->
<g id="node5" class="node">
<title>Node5</title>
<g id="a_node5"><a xlink:title=" ">
<polygon fill="none" stroke="#bfbfbf" points="297,-0.5 297,-30.5 403,-30.5 403,-0.5 297,-0.5"/>
<text text-anchor="start" x="305" y="-18.5" font-family="Helvetica,sans-Serif" font-size="10.00">EposCmdLib_6.5.1.0</text>
<text text-anchor="middle" x="350" y="-7.5" font-family="Helvetica,sans-Serif" font-size="10.00">/include/Definitions.h</text>
</a>
</g>
</g>
<!-- Node4&#45;&gt;Node5 -->
<g id="edge4" class="edge">
<title>Node4&#45;&gt;Node5</title>
<path fill="none" stroke="midnightblue" d="M338.86,-67.48C340.41,-60.4 342.69,-49.97 344.78,-40.39"/>
<polygon fill="midnightblue" stroke="midnightblue" points="348.22,-41.04 346.94,-30.52 341.38,-39.55 348.22,-41.04"/>
</g>
<!-- Node6 -->
<g id="node6" class="node">
<title>Node6</title>
<g id="a_node6"><a xlink:title=" ">
<polygon fill="none" stroke="#bfbfbf" points="421,-6 421,-25 475,-25 475,-6 421,-6"/>
<text text-anchor="middle" x="448" y="-13" font-family="Helvetica,sans-Serif" font-size="10.00">iostream</text>
</a>
</g>
</g>
<!-- Node4&#45;&gt;Node6 -->
<g id="edge5" class="edge">
<title>Node4&#45;&gt;Node6</title>
<path fill="none" stroke="midnightblue" d="M352.9,-67.48C371.28,-57.62 401.76,-41.29 423.24,-29.77"/>
<polygon fill="midnightblue" stroke="midnightblue" points="424.97,-32.82 432.13,-25.01 421.66,-26.65 424.97,-32.82"/>
</g>
<!-- Node4&#45;&gt;Node7 -->
<g id="edge6" class="edge">
<title>Node4&#45;&gt;Node7</title>
<path fill="none" stroke="midnightblue" d="M310.52,-67.47C283.24,-58.61 239.51,-44.22 202,-31 199.76,-30.21 197.45,-29.38 195.12,-28.54"/>
<polygon fill="midnightblue" stroke="midnightblue" points="196.23,-25.22 185.64,-25.07 193.82,-31.79 196.23,-25.22"/>
</g>
<!-- Node4&#45;&gt;Node8 -->
<g id="edge7" class="edge">
<title>Node4&#45;&gt;Node8</title>
<path fill="none" stroke="midnightblue" d="M323.82,-67.48C308.93,-57.84 284.46,-42.02 266.73,-30.55"/>
<polygon fill="midnightblue" stroke="midnightblue" points="268.45,-27.5 258.16,-25.01 264.65,-33.38 268.45,-27.5"/>
</g>
<!-- Node9&#45;&gt;Node2 -->
<g id="edge11" class="edge">
<title>Node9&#45;&gt;Node2</title>
<path fill="none" stroke="midnightblue" d="M88.68,-67.48C77.35,-58.11 58.93,-42.88 45.16,-31.51"/>
<polygon fill="midnightblue" stroke="midnightblue" points="47.23,-28.68 37.3,-25.01 42.78,-34.08 47.23,-28.68"/>
</g>
<!-- Node9&#45;&gt;Node7 -->
<g id="edge12" class="edge">
<title>Node9&#45;&gt;Node7</title>
<path fill="none" stroke="midnightblue" d="M108.17,-67.48C118.15,-58.2 134.31,-43.17 146.51,-31.83"/>
<polygon fill="midnightblue" stroke="midnightblue" points="148.91,-34.38 153.85,-25.01 144.14,-29.25 148.91,-34.38"/>
</g>
<!-- Node9&#45;&gt;Node8 -->
<g id="edge13" class="edge">
<title>Node9&#45;&gt;Node8</title>
<path fill="none" stroke="midnightblue" d="M119.92,-67.48C144.75,-57.36 186.34,-40.4 214.69,-28.85"/>
<polygon fill="midnightblue" stroke="midnightblue" points="216.18,-32.02 224.12,-25.01 213.54,-25.54 216.18,-32.02"/>
</g>
<!-- Node10 -->
<g id="node10" class="node">
<title>Node10</title>
<g id="a_node10"><a xlink:title=" ">
<polygon fill="none" stroke="#bfbfbf" points="72.5,-6 72.5,-25 115.5,-25 115.5,-6 72.5,-6"/>
<text text-anchor="middle" x="94" y="-13" font-family="Helvetica,sans-Serif" font-size="10.00">time.h</text>
</a>
</g>
</g>
<!-- Node9&#45;&gt;Node10 -->
<g id="edge14" class="edge">
<title>Node9&#45;&gt;Node10</title>
<path fill="none" stroke="midnightblue" d="M98.28,-67.48C97.58,-59.08 96.48,-45.98 95.57,-35.16"/>
<polygon fill="midnightblue" stroke="midnightblue" points="99.04,-34.68 94.72,-25.01 92.06,-35.27 99.04,-34.68"/>
</g>
<!-- Node11&#45;&gt;Node2 -->
<g id="edge16" class="edge">
<title>Node11&#45;&gt;Node2</title>
<path fill="none" stroke="midnightblue" d="M172.85,-129.73C139.38,-125.84 90.1,-115.33 58,-87 42.69,-73.49 34.61,-51 30.59,-35.06"/>
<polygon fill="midnightblue" stroke="midnightblue" points="34,-34.26 28.41,-25.26 27.16,-35.78 34,-34.26"/>
</g>
<!-- Node11&#45;&gt;Node4 -->
<g id="edge17" class="edge">
<title>Node11&#45;&gt;Node4</title>
<path fill="none" stroke="midnightblue" d="M229.28,-123.44C250.35,-114.56 283.52,-100.56 307.49,-90.45"/>
<polygon fill="midnightblue" stroke="midnightblue" points="308.96,-93.63 316.81,-86.52 306.24,-87.18 308.96,-93.63"/>
</g>
<!-- Node11&#45;&gt;Node7 -->
<g id="edge20" class="edge">
<title>Node11&#45;&gt;Node7</title>
<path fill="none" stroke="midnightblue" d="M205.54,-123.32C198.08,-104.59 180.34,-60.05 170.29,-34.79"/>
<polygon fill="midnightblue" stroke="midnightblue" points="173.45,-33.28 166.5,-25.28 166.95,-35.87 173.45,-33.28"/>
</g>
<!-- Node11&#45;&gt;Node8 -->
<g id="edge19" class="edge">
<title>Node11&#45;&gt;Node8</title>
<path fill="none" stroke="midnightblue" d="M211.71,-123.32C217.52,-104.67 231.3,-60.44 239.19,-35.13"/>
<polygon fill="midnightblue" stroke="midnightblue" points="242.63,-35.87 242.26,-25.28 235.95,-33.79 242.63,-35.87"/>
</g>
<!-- Node11&#45;&gt;Node9 -->
<g id="edge18" class="edge">
<title>Node11&#45;&gt;Node9</title>
<path fill="none" stroke="midnightblue" d="M191.33,-123.32C173.61,-114.62 146.1,-101.12 125.71,-91.11"/>
<polygon fill="midnightblue" stroke="midnightblue" points="127.15,-87.92 116.63,-86.65 124.06,-94.2 127.15,-87.92"/>
</g>
</g>
</svg>
